<?xml version="1.0" standalone="no"?>
<!DOCTYPE svg PUBLIC "-//W3C//DTD SVG 20010904//EN"
 "http://www.w3.org/TR/2001/REC-SVG-20010904/DTD/svg10.dtd">
<svg version="1.0" xmlns="http://www.w3.org/2000/svg"
 width="1024.000000pt" height="1024.000000pt" viewBox="0 0 1024.000000 1024.000000"
 preserveAspectRatio="xMidYMid meet">

<g transform="translate(0.000000,1024.000000) scale(0.100000,-0.100000)"
fill="#000000" stroke="none">
<path d="M0 5120 l0 -5120 5120 0 5120 0 0 5120 0 5120 -5120 0 -5120 0 0
-5120z m5040 3200 c0 -13 -11 -13 -30 0 -12 8 -11 10 8 10 12 0 22 -4 22 -10z
m143 3 c-23 -2 -64 -2 -90 0 -26 2 -7 3 42 3 50 0 71 -1 48 -3z m190 0 c-18
-2 -48 -2 -65 0 -18 2 -4 4 32 4 36 0 50 -2 33 -4z m-415 -10 c-10 -2 -28 -2
-40 0 -13 2 -5 4 17 4 22 1 32 -1 23 -4z m515 0 c-7 -2 -19 -2 -25 0 -7 3 -2
5 12 5 14 0 19 -2 13 -5z m-631 -11 c-7 -5 -38 -9 -70 -9 -48 0 -52 1 -22 7
50 10 108 11 92 2z m721 1 c-7 -2 -19 -2 -25 0 -7 3 -2 5 12 5 14 0 19 -2 13
-5z m124 -20 c0 -8 -4 -9 -11 -4 -6 5 -20 11 -31 14 -12 3 -8 5 11 4 18 -1 31
-6 31 -14z m-962 -3 c25 -11 -1 -11 -35 0 -20 6 -21 8 -5 8 11 0 29 -3 40 -8z
m1012 4 c-3 -3 -12 -4 -19 -1 -8 3 -5 6 6 6 11 1 17 -2 13 -5z m-1082 -14 c-3
-5 -11 -10 -16 -10 -6 0 -7 5 -4 10 3 6 11 10 16 10 6 0 7 -4 4 -10z m-128
-21 c-42 -10 -90 -25 -107 -34 -32 -17 -90 -21 -74 -6 10 11 208 59 239 59 11
0 -15 -9 -58 -19z m1360 5 c-3 -3 -12 -4 -19 -1 -8 3 -5 6 6 6 11 1 17 -2 13
-5z m46 -11 c-7 -2 -19 -2 -25 0 -7 3 -2 5 12 5 14 0 19 -2 13 -5z m154 -39
c-3 -3 -12 -4 -19 -1 -8 3 -5 6 6 6 11 1 17 -2 13 -5z m-1805 -18 c-24 -6 -41
-14 -38 -16 3 -3 -3 -6 -12 -7 -40 -3 -77 -19 -77 -33 0 -8 -9 -16 -20 -17
l-20 -3 20 9 c24 11 9 13 -34 5 -17 -4 -28 -10 -25 -15 3 -5 -3 -6 -12 -2 -12
4 -15 3 -10 -5 4 -7 0 -13 -11 -14 -10 -1 -25 -2 -33 -3 -28 -3 -60 -16 -60
-26 0 -5 -8 -9 -17 -9 -15 0 -15 2 -3 14 27 25 335 136 375 135 11 -1 1 -6
-23 -13z m1882 -5 c4 -5 -3 -7 -14 -4 -23 6 -26 13 -6 13 8 0 17 -4 20 -9z
m-2258 -139 c-3 -5 -26 -15 -51 -22 -25 -7 -45 -16 -45 -20 0 -4 -7 -10 -15
-14 -8 -3 -15 -1 -15 5 0 10 121 70 129 63 1 -1 0 -7 -3 -12z m1401 2 c-3 -3
-12 -4 -19 -1 -8 3 -5 6 6 6 11 1 17 -2 13 -5z m115 -29 c48 -3 98 -10 110
-15 15 -6 -6 -7 -62 -2 -47 4 -181 7 -297 7 -117 0 -213 3 -213 7 0 14 266 16
462 3z m-1502 -5 c18 -12 2 -12 -25 0 -13 6 -15 9 -5 9 8 0 22 -4 30 -9z
m1010 -13 c-10 -9 -130 -18 -130 -10 0 4 30 9 67 11 37 2 65 1 63 -1z m696
-15 c-10 -2 -22 0 -28 6 -6 6 0 7 19 4 21 -5 23 -7 9 -10z m138 6 c-3 -4 -17
-5 -31 -2 -17 5 -24 3 -20 -3 4 -6 24 -14 44 -18 21 -4 33 -9 27 -12 -6 -2
-30 3 -53 11 -23 7 -52 12 -64 9 -20 -4 -20 -3 3 10 26 16 103 20 94 5z
m-2004 -8 c0 -5 -7 -10 -16 -10 -8 0 -12 -4 -9 -10 3 -5 1 -10 -5 -10 -19 0
-82 -31 -117 -57 -18 -13 -33 -21 -33 -16 0 4 -7 -3 -16 -15 -9 -13 -22 -21
-30 -18 -8 3 -14 2 -14 -2 0 -4 -21 -19 -47 -32 -105 -55 -139 -86 -120 -109
10 -12 9 -12 -10 -1 -18 12 -25 11 -47 -4 -15 -9 -24 -22 -20 -28 5 -7 3 -8
-5 -4 -7 5 -20 2 -30 -6 -9 -7 -3 0 13 15 50 47 259 181 278 180 10 -1 16 2
13 7 -5 8 28 33 45 35 3 0 16 8 30 17 24 16 132 77 138 78 1 0 2 -4 2 -10z
m777 4 c-3 -3 -12 -4 -19 -1 -8 3 -5 6 6 6 11 1 17 -2 13 -5z m107 -5 c-4 -8
3 -9 22 -6 16 3 49 8 74 11 38 4 35 2 -18 -10 -62 -16 -99 -13 -87 6 3 5 8 10
11 10 3 0 2 -5 -2 -11z m1173 5 c-3 -3 -12 -4 -19 -1 -8 3 -5 6 6 6 11 1 17
-2 13 -5z m848 -12 c-3 -3 -11 0 -18 7 -9 10 -8 11 6 5 10 -3 15 -9 12 -12z
m-2154 -9 c13 -17 13 -17 -6 -3 -11 8 -22 16 -24 17 -2 2 0 3 6 3 6 0 17 -8
24 -17z m54 -4 c4 -5 21 -8 38 -5 59 11 -4 -11 -103 -35 -52 -13 -108 -22
-125 -21 -23 1 -26 -1 -15 -8 8 -5 11 -10 5 -10 -5 0 -16 4 -23 9 -19 12 14
24 41 15 13 -4 17 -2 13 5 -4 6 -2 9 7 6 7 -3 29 1 48 8 18 8 39 13 45 10 16
-6 68 24 52 30 -9 4 -9 6 -1 6 6 1 15 -4 18 -10z m1323 -14 c20 -4 32 -3 32 4
0 6 4 11 9 11 6 0 9 -9 8 -20 -1 -14 -6 -19 -17 -14 -8 4 -36 9 -62 11 -26 3
-45 10 -42 15 3 5 13 7 22 4 10 -2 32 -7 50 -11z m-1550 -20 c-2 -5 -8 -10
-15 -11 -6 -1 -9 4 -6 12 6 16 27 15 21 -1z m1639 -11 c-3 -3 -12 -4 -19 -1
-8 3 -5 6 6 6 11 1 17 -2 13 -5z m183 -16 c0 -6 -6 -5 -15 2 -8 7 -15 14 -15
16 0 2 7 1 15 -2 8 -4 15 -11 15 -16z m-1832 -19 c9 0 -3 -7 -28 -15 -54 -17
-53 -16 -45 -4 3 6 1 10 -4 10 -6 0 -11 -6 -11 -14 0 -7 -21 -21 -47 -30 -27
-10 -64 -24 -83 -31 -19 -8 -46 -16 -60 -19 l-25 -6 25 11 c14 6 40 18 58 27
18 8 39 15 47 15 8 0 15 4 15 9 0 4 9 8 20 8 10 0 28 9 39 21 14 15 26 19 41
14 17 -5 21 -4 15 6 -6 9 -3 11 9 6 10 -4 25 -7 34 -8z m-658 -14 c-7 -9 -15
-13 -19 -10 -3 3 1 10 9 15 21 14 24 12 10 -5z m2494 4 c3 -3 -10 -5 -29 -4
-19 0 -37 3 -40 6 -3 3 10 5 29 5 19 -1 37 -4 40 -7z m82 -31 c4 4 4 2 1 -5
-7 -12 -44 -7 -53 8 -3 5 6 5 19 0 14 -6 28 -7 33 -3z m-2109 -4 c-3 -3 -12
-4 -19 -1 -8 3 -5 6 6 6 11 1 17 -2 13 -5z m2823 -31 c0 -7 -39 17 -46 28 -3
6 5 3 20 -6 14 -10 26 -19 26 -22z m-673 21 c-3 -3 -12 -4 -19 -1 -8 3 -5 6 6
6 11 1 17 -2 13 -5z m-2787 -18 c0 -3 -4 -8 -10 -11 -5 -3 -10 -1 -10 4 0 6 5
11 10 11 6 0 10 -2 10 -4z m535 -6 c-3 -5 -13 -10 -21 -10 -8 0 -12 5 -9 10 3
6 13 10 21 10 8 0 12 -4 9 -10z m2338 -25 c11 -7 36 -16 57 -20 21 -4 41 -13
44 -21 7 -18 -4 -18 -29 0 -11 7 -31 16 -45 19 -27 7 -72 36 -55 36 6 0 18 -6
28 -14z m-2376 -31 c-15 -8 -31 -12 -36 -9 -5 3 -12 0 -14 -5 -3 -6 -4 -5 -3
2 1 7 13 14 25 14 12 1 24 4 28 8 3 3 11 6 17 6 6 -1 -1 -8 -17 -16z m-107
-22 c3 -3 -6 -1 -20 3 -22 7 -23 6 -11 -9 8 -9 9 -16 3 -16 -16 0 -23 16 -16
34 6 16 10 15 44 -12z m3185 8 c3 -6 -1 -7 -9 -4 -18 7 -21 14 -7 14 6 0 13
-4 16 -10z m-3161 -25 c-10 -8 -23 -14 -29 -14 -5 -1 1 8 15 19 14 10 27 17
29 14 3 -2 -4 -11 -15 -19z m2628 -2 c10 -3 16 -9 13 -13 -3 -5 -19 -2 -35 7
-32 15 -42 30 -12 18 9 -4 25 -10 34 -12z m-2756 -64 c-32 -17 -60 -28 -63
-26 -5 5 96 55 112 56 6 0 -16 -14 -49 -30z m2829 21 c-7 -11 74 -42 87 -34
10 5 10 4 1 -6 -10 -11 -21 -9 -63 10 -57 27 -67 36 -40 36 10 0 17 -3 15 -6z
m100 -8 c-3 -3 -11 0 -18 7 -9 10 -8 11 6 5 10 -3 15 -9 12 -12z m470 -10 c-3
-3 -11 0 -18 7 -9 10 -8 11 6 5 10 -3 15 -9 12 -12z m-3470 -2 c-3 -5 -10 -10
-16 -10 -5 0 -9 5 -9 10 0 6 7 10 16 10 8 0 12 -4 9 -10z m-520 -20 c-10 -11
-23 -20 -29 -20 -6 0 0 9 14 20 32 25 38 25 15 0z m4026 3 c13 -16 12 -17 -3
-4 -10 7 -18 15 -18 17 0 8 8 3 21 -13z m-2022 3 c-2 -2 -20 -6 -39 -10 -25
-4 -31 -3 -20 4 14 9 69 15 59 6z m56 -7 c11 -17 2 -18 -19 -3 -17 12 -17 14
-4 14 9 0 20 -5 23 -11z m1505 -46 c0 -2 -10 2 -22 9 -13 7 -27 11 -31 10 -5
-1 -6 2 -2 8 5 9 55 -15 55 -27z m-1440 -277 l0 -261 -25 -28 c-26 -27 -36
-31 -65 -27 -17 2 -31 21 -24 32 8 12 24 10 22 -3 -2 -6 3 -14 10 -16 6 -3 12
0 12 6 0 6 8 8 18 5 9 -3 6 2 -8 10 -14 8 -22 15 -18 16 3 0 14 3 23 6 9 4 15
3 14 -2 -4 -21 2 -26 16 -14 11 9 12 15 5 20 -8 5 -8 20 0 54 6 27 10 141 10
256 -1 168 -4 211 -16 221 -8 6 -14 17 -14 23 1 6 10 0 20 -13 19 -22 20 -39
20 -285z m-225 258 c-8 -16 -15 -23 -15 -16 0 13 22 53 27 48 2 -2 -3 -16 -12
-32z m-1442 11 c-3 -15 -17 -16 -37 -2 -16 12 -15 13 11 12 15 0 27 -4 26 -10z
m3142 -4 c3 -5 2 -12 -3 -15 -5 -3 -9 1 -9 9 0 17 3 19 12 6z m-3175 -24 c0
-6 -3 -8 -6 -4 -4 3 -13 -1 -21 -9 -27 -26 -103 -75 -103 -66 0 6 7 13 16 16
10 4 14 12 10 22 -5 14 -4 15 9 4 12 -10 15 -10 15 0 0 8 3 11 6 7 8 -7 28 12
37 35 7 19 37 14 37 -5z m3625 13 c3 -5 1 -10 -4 -10 -6 0 -11 5 -11 10 0 6 2
10 4 10 3 0 8 -4 11 -10z m86 -17 c13 -16 12 -17 -3 -4 -10 7 -18 15 -18 17 0
8 8 3 21 -13z m-516 -3 c3 -5 1 -10 -4 -10 -6 0 -11 5 -11 10 0 6 2 10 4 10 3
0 8 -4 11 -10z m-3737 -14 c-7 -8 -15 -12 -17 -11 -5 6 10 25 20 25 5 0 4 -6
-3 -14z m-28 -21 c0 -2 -10 -15 -22 -28 -13 -13 -29 -33 -36 -45 -12 -21 -11
-22 12 -16 14 3 27 1 31 -7 5 -7 4 -10 -1 -6 -6 3 -16 1 -24 -4 -12 -7 -11
-10 8 -15 28 -8 29 -40 1 -54 -15 -9 -19 -18 -15 -35 5 -18 -1 -29 -20 -44
-30 -23 -24 -41 13 -41 l26 0 -23 -25 c-13 -14 -28 -25 -34 -24 -6 0 -5 3 2 6
14 6 16 23 2 23 -5 0 -24 -13 -42 -30 -25 -22 -29 -29 -15 -30 23 0 22 -36 -2
-43 -11 -2 -24 0 -29 5 -7 7 -14 2 -23 -13 -6 -13 -18 -28 -25 -32 -9 -5 -14
-26 -14 -52 0 -25 -4 -45 -10 -45 -5 0 -10 5 -10 10 0 6 -5 10 -11 10 -6 0 -8
-7 -5 -16 3 -8 2 -13 -3 -10 -12 8 -31 -40 -20 -51 6 -6 2 -18 -11 -33 -11
-13 -20 -27 -20 -31 0 -5 -7 -6 -16 -2 -12 4 -15 2 -12 -8 5 -14 -31 -49 -51
-49 -6 0 -11 -9 -11 -20 0 -13 -7 -20 -19 -20 -13 0 -20 -9 -24 -30 -5 -21
-11 -28 -22 -24 -10 4 -15 0 -15 -11 0 -13 6 -16 24 -13 18 4 26 0 29 -13 5
-18 -11 -29 -44 -29 -10 0 -19 -6 -20 -12 0 -10 -2 -10 -6 0 -8 20 -42 -15
-36 -37 6 -23 -53 -71 -86 -71 -12 0 -20 -4 -16 -9 3 -6 -4 -26 -15 -46 -11
-20 -16 -34 -10 -30 6 3 7 0 4 -9 -3 -9 -9 -16 -13 -16 -7 0 -51 66 -51 77 0
5 -4 14 -9 22 -8 12 -12 12 -25 -2 -25 -25 -68 -117 -62 -132 3 -9 0 -12 -9
-8 -8 3 -14 8 -12 12 2 3 8 17 13 31 16 37 120 247 152 306 24 44 64 107 181
283 80 120 245 306 450 507 31 31 51 42 51 29z m4329 -9 c9 -10 7 -17 -6 -27
-16 -12 -17 -12 -6 2 10 12 10 18 1 27 -7 7 -9 12 -6 12 3 0 11 -6 17 -14z
m-2262 -38 c-3 -7 -5 -2 -5 12 0 14 2 19 5 13 2 -7 2 -19 0 -25z m-1646 -3 c0
-6 -9 -16 -20 -23 -16 -11 -19 -11 -17 0 4 32 38 52 37 23z m1829 -125 c0 -66
-4 -120 -9 -120 -5 0 -9 54 -10 120 0 71 4 120 9 120 6 0 10 -49 10 -120z
m1665 100 c10 -11 16 -20 13 -20 -3 0 -13 9 -23 20 -10 11 -16 20 -13 20 3 0
13 -9 23 -20z m30 2 c-3 -3 -11 0 -18 7 -9 10 -8 11 6 5 10 -3 15 -9 12 -12z
m-3575 -21 c0 -5 -7 -12 -16 -15 -14 -5 -15 -4 -4 9 14 17 20 19 20 6z m4066
-13 l19 -23 -25 20 c-14 11 -27 21 -29 22 -2 2 0 3 6 3 5 0 18 -10 29 -22z
m-453 3 c4 -1 7 -8 7 -16 0 -17 34 -37 46 -27 5 4 6 3 1 -2 -4 -5 3 -21 15
-35 17 -19 12 -17 -20 9 -24 18 -46 39 -49 47 -3 7 -9 11 -13 8 -4 -3 -13 2
-19 9 -10 12 -9 14 6 11 10 -2 21 -4 26 -4z m-3653 -25 c0 -2 -8 -10 -17 -17
-16 -13 -17 -12 -4 4 13 16 21 21 21 13z m1720 -46 c0 -22 -4 -40 -10 -40 -5
0 -10 18 -10 40 0 22 5 40 10 40 6 0 10 -18 10 -40z m-1825 -46 c-38 -35 -71
-61 -74 -59 -2 3 7 13 20 24 50 40 68 58 64 65 -3 3 -2 4 2 1 10 -8 43 26 36
38 -4 6 -1 7 7 2 10 -6 -4 -25 -55 -71z m4264 62 c7 -8 8 -17 3 -20 -6 -3 -12
3 -15 14 -6 24 -4 25 12 6z m-3494 -27 c15 -7 11 -7 -14 -3 -18 3 -31 2 -28
-2 3 -5 -5 -9 -16 -10 -12 0 -31 -4 -42 -9 -12 -5 -17 -5 -12 1 9 10 66 32 82
33 6 0 19 -5 30 -10z m2363 -1 c-4 -20 -21 -28 -46 -21 -16 4 -21 2 -17 -9 3
-7 17 -15 31 -16 32 -2 44 -10 44 -27 0 -9 -12 -13 -37 -12 -31 2 -39 6 -41
24 -4 29 -42 27 -42 -2 0 -12 -5 -26 -11 -32 -13 -13 2 -12 35 2 11 5 21 3 26
-5 5 -8 19 -11 39 -7 37 8 43 -1 46 -68 2 -38 -1 -52 -11 -52 -17 0 -18 9 -1
26 10 11 9 12 -1 6 -11 -6 -12 -3 -3 13 15 28 14 32 -9 32 -21 0 -29 -33 -10
-45 6 -4 1 -18 -11 -35 -20 -26 -20 -30 -6 -44 21 -22 24 -20 32 13 4 19 11
28 19 25 15 -6 29 22 19 38 -3 7 -1 8 6 4 7 -4 15 2 20 16 6 13 10 16 10 8 1
-16 -88 -150 -99 -150 -4 0 -11 -10 -15 -22 -4 -15 -8 -19 -12 -10 -3 8 0 19
6 25 6 6 11 18 11 27 0 9 -11 2 -30 -20 -16 -19 -29 -46 -29 -60 0 -22 1 -23
10 -7 5 9 15 17 20 17 6 0 -9 -27 -32 -60 -23 -33 -46 -60 -52 -60 -6 0 -7 -3
-4 -6 10 -11 -31 -61 -69 -84 -26 -17 -44 -21 -72 -16 -20 3 -43 7 -49 8 -19
2 -16 14 6 29 25 17 32 54 11 54 -9 0 -14 -7 -12 -18 3 -18 -14 -47 -28 -47
-3 0 -7 14 -7 31 0 26 2 29 12 16 9 -12 11 -6 13 28 1 27 -4 47 -13 55 -8 7
-12 17 -8 23 4 6 1 7 -6 3 -7 -5 -10 -14 -7 -21 2 -7 0 -17 -6 -23 -6 -6 -6
-22 1 -48 12 -44 8 -55 -9 -23 -27 50 -1 111 118 280 26 36 66 94 90 128 25
36 48 59 54 55 6 -4 8 -3 5 2 -8 14 3 29 43 53 39 23 81 28 78 9z m1167 -9
c11 -16 1 -19 -13 -3 -7 8 -8 14 -3 14 5 0 13 -5 16 -11z m-1097 -28 c34 -33
49 -82 32 -108 -10 -16 -10 -16 -5 3 3 13 -1 26 -10 34 -17 14 -21 35 -5 25
25 -15 7 16 -25 44 -20 17 -32 31 -27 31 5 0 23 -13 40 -29z m-1271 -53 c-2
-13 -4 -3 -4 22 0 25 2 35 4 23 2 -13 2 -33 0 -45z m1972 51 c-13 -8 -5 -13
15 -10 5 1 4 -5 -4 -14 -10 -11 -16 -13 -26 -4 -8 6 -12 15 -9 19 3 5 -1 10
-7 13 -7 2 0 4 16 4 19 0 24 -2 15 -8z m-3273 -27 c-17 -16 -18 -16 -5 5 7 12
15 20 18 17 3 -2 -3 -12 -13 -22z m246 -25 c12 -18 16 -27 8 -21 -8 6 -27 9
-43 8 -25 -3 -26 -1 -12 13 9 9 14 22 11 30 -9 22 11 6 36 -30z m2159 0 c-10
-9 -11 -8 -5 6 3 10 9 15 12 12 3 -3 0 -11 -7 -18z m-3121 -20 c0 -2 -17 -19
-37 -38 -20 -18 -31 -26 -24 -17 7 9 10 22 6 27 -3 6 0 8 8 5 8 -3 20 2 27 11
12 14 20 19 20 12z m1899 -34 c-1 -21 -5 -49 -9 -63 -6 -19 -8 -9 -9 38 -1 35
3 62 9 62 6 0 10 -17 9 -37z m31 -3 c0 -22 -4 -40 -9 -40 -5 0 -11 -13 -13
-30 -5 -30 5 -41 16 -17 3 6 3 2 0 -10 -4 -19 -2 -22 13 -17 16 5 16 4 -2 -11
-19 -16 -19 -17 11 -10 36 7 67 -15 57 -42 -4 -10 -2 -14 5 -9 6 3 13 2 17 -4
4 -6 -5 -10 -19 -10 -14 0 -26 4 -26 10 0 5 -6 7 -14 4 -14 -5 -60 37 -56 51
1 4 -3 11 -10 15 -8 5 -8 19 -1 51 6 24 11 59 11 77 0 17 5 32 10 32 6 0 10
-18 10 -40z m-1207 -6 c4 -23 3 -24 -10 -11 -9 8 -12 20 -9 26 10 16 13 14 19
-15z m326 -64 c52 -75 60 -93 51 -107 -11 -17 -11 -17 -6 1 4 12 -8 38 -36 76
-24 32 -49 67 -56 77 -10 13 -12 14 -8 2 2 -9 -1 -16 -8 -16 -9 0 -15 40 -7
55 4 7 14 -6 70 -88z m3455 74 c3 -8 2 -12 -4 -9 -6 3 -10 10 -10 16 0 14 7
11 14 -7z m-3730 -38 c-1 -10 4 -15 13 -14 10 2 16 -7 19 -25 l3 -28 -21 26
c-15 19 -23 23 -33 15 -10 -8 -15 -8 -20 0 -4 6 -4 14 -1 17 3 4 6 1 6 -6 0
-7 4 -10 9 -7 5 3 7 16 4 27 -4 16 -2 20 8 17 8 -3 13 -13 13 -22z m3346 4 c6
-11 7 -20 2 -20 -6 0 -12 9 -15 20 -3 11 -3 20 -1 20 2 0 8 -9 14 -20z m-4256
-72 c-93 -100 -117 -128 -198 -237 -45 -60 -87 -117 -94 -127 -7 -11 -5 -3 4
16 9 18 23 40 31 48 8 8 12 21 9 28 -3 7 0 16 6 20 7 4 8 3 4 -4 -4 -7 -3 -12
2 -12 10 0 37 50 33 63 -1 5 3 6 8 2 12 -7 33 29 23 40 -4 5 -2 5 4 2 6 -3 37
26 69 66 67 81 138 156 144 151 2 -2 -18 -27 -45 -56z m2233 30 c-3 -8 -6 -5
-6 6 -1 11 2 17 5 13 3 -3 4 -12 1 -19z m-1297 -57 c0 -14 2 -14 11 -1 9 13
10 13 6 -2 -3 -9 0 -22 8 -28 15 -12 28 -53 14 -44 -5 3 -9 11 -9 17 0 7 -12
23 -25 36 -14 12 -23 27 -20 32 3 4 -4 13 -15 19 -11 6 -17 16 -14 22 9 14 44
-27 44 -51z m3805 1 c-6 -6 -44 40 -45 52 0 5 11 -4 25 -20 13 -15 22 -30 20
-32z m-1385 38 c0 -5 -2 -10 -4 -10 -3 0 -8 5 -11 10 -3 6 -1 10 4 10 6 0 11
-4 11 -10z m960 4 c0 -8 -19 -13 -24 -6 -3 5 1 9 9 9 8 0 15 -2 15 -3z m-4370
-38 c0 -2 -7 -9 -15 -16 -13 -11 -14 -10 -9 4 5 14 24 23 24 12z m1135 -6 c-3
-5 -10 -10 -16 -10 -5 0 -9 5 -9 10 0 6 7 10 16 10 8 0 12 -4 9 -10z m3265 -5
c4 3 13 -2 19 -9 9 -10 9 -16 1 -21 -6 -4 -9 -1 -8 6 2 7 -3 13 -11 14 -8 0
-15 6 -17 13 -1 7 0 8 3 2 2 -5 8 -8 13 -5z m-3352 -20 c-3 -3 -9 2 -12 12 -6
14 -5 15 5 6 7 -7 10 -15 7 -18z m3783 -17 l23 -33 -27 24 c-15 14 -27 28 -27
33 0 15 8 8 31 -24z m-3741 -13 c0 -8 -4 -15 -10 -15 -5 0 -7 7 -4 15 4 8 8
15 10 15 2 0 4 -7 4 -15z m239 -9 c7 -8 8 -17 3 -20 -6 -3 -12 3 -15 14 -6 24
-4 25 12 6z m-1424 -22 c-8 -9 -12 -21 -8 -27 3 -7 2 -9 -2 -4 -16 14 -12 43
7 44 16 2 17 0 3 -13z m1338 -5 c3 -12 10 -18 15 -15 6 3 8 -2 5 -14 -6 -22
-23 -18 -23 6 0 8 -4 14 -10 14 -5 0 -10 7 -10 15 0 22 17 18 23 -6z m3222 12
c-3 -5 -1 -12 4 -15 5 -4 12 -2 16 4 4 6 11 8 16 4 6 -3 5 -12 -3 -22 -11 -14
-10 -15 7 -8 16 6 17 5 8 -5 -10 -10 -18 -8 -38 11 -21 20 -26 40 -9 40 3 0 3
-4 -1 -9z m-3114 -43 c-10 -11 -11 -9 -5 6 6 15 4 17 -6 11 -9 -6 -11 -4 -5 4
5 9 10 10 18 2 8 -8 7 -14 -2 -23z m-276 11 c11 -16 1 -19 -13 -3 -7 8 -8 14
-3 14 5 0 13 -5 16 -11z m3824 -33 c-3 -3 -11 5 -18 17 -13 21 -12 21 5 5 10
-10 16 -20 13 -22z m-3523 5 c-4 -5 0 -11 6 -13 20 -7 15 -89 -6 -121 -14 -21
-22 -25 -32 -16 -7 6 -10 18 -7 26 4 10 2 14 -4 10 -8 -5 -7 1 0 17 11 23 13
23 19 6 11 -30 25 -32 21 -2 -4 21 -2 24 6 12 17 -24 14 12 -4 46 -8 16 -15
23 -15 15 0 -8 -3 -11 -6 -8 -4 4 -1 13 6 22 14 16 25 21 16 6z m3148 -17 c3
-8 11 -12 17 -8 8 4 9 3 5 -5 -4 -6 -2 -18 4 -26 7 -8 10 -15 7 -15 -2 0 -17
16 -31 35 -15 19 -23 35 -18 35 6 0 13 -7 16 -16z m-4711 -11 c-4 -11 -3 -14
5 -9 8 5 10 2 5 -10 -5 -15 -7 -15 -15 0 -5 9 -6 21 -3 26 10 16 15 12 8 -7z
m1309 -13 c5 0 8 6 5 13 -3 8 0 14 7 14 6 0 12 -8 12 -18 0 -10 -4 -16 -7 -13
-4 2 -10 0 -14 -6 -3 -5 -1 -10 4 -10 6 0 11 -8 11 -17 0 -13 3 -15 8 -5 6 9
12 5 22 -13 7 -14 17 -25 22 -25 5 0 6 -4 3 -10 -3 -6 1 -7 9 -4 9 3 16 1 16
-5 0 -6 -9 -11 -20 -11 -12 0 -20 7 -20 17 0 9 -3 13 -7 10 -7 -8 -82 91 -82
108 0 6 4 2 10 -7 5 -10 15 -18 21 -18z m134 -26 c25 -27 34 -46 34 -70 0 -24
5 -34 15 -34 8 0 15 5 15 11 0 5 5 7 11 3 18 -11 -12 -24 -56 -24 -47 0 -74
13 -54 26 7 4 14 3 17 -4 8 -24 23 -11 18 16 -2 15 -5 34 -5 44 -1 11 -7 15
-19 11 -26 -6 -48 22 -32 42 17 20 16 20 56 -21z m3694 -16 c0 -5 -6 -3 -13 4
-8 7 -14 19 -14 26 0 11 4 10 14 -4 7 -10 13 -22 13 -26z m-364 -8 c0 -12 -4
-16 -9 -11 -5 5 -6 14 -3 20 10 15 12 14 12 -9z m-4809 -6 c-3 -3 -12 -4 -19
-1 -8 3 -5 6 6 6 11 1 17 -2 13 -5z m5247 -95 c12 -21 12 -26 1 -26 -7 0 -11
6 -8 13 2 7 -4 21 -15 32 -21 21 -42 55 -42 68 0 8 42 -49 64 -87z m-5297 29
c-3 -7 -5 -2 -5 12 0 14 2 19 5 13 2 -7 2 -19 0 -25z m4901 7 c-3 -3 -9 2 -12
12 -6 14 -5 15 5 6 7 -7 10 -15 7 -18z m92 -19 c0 -3 -4 -8 -10 -11 -5 -3 -10
-1 -10 4 0 6 5 11 10 11 6 0 10 -2 10 -4z m-5057 -22 c9 -9 -4 -35 -14 -28 -5
3 -9 12 -9 20 0 14 12 19 23 8z m5002 -12 c-3 -3 -11 0 -18 7 -9 10 -8 11 6 5
10 -3 15 -9 12 -12z m403 -61 c11 -21 18 -42 15 -45 -7 -6 -27 28 -35 62 -9
32 -3 27 20 -17z m-5338 13 c0 -8 -19 -13 -24 -6 -3 5 1 9 9 9 8 0 15 -2 15
-3z m2428 -1 c-27 -2 -69 -2 -95 0 -27 2 -5 3 47 3 52 0 74 -1 48 -3z m190 0
c-16 -2 -40 -2 -55 0 -16 2 -3 4 27 4 30 0 43 -2 28 -4z m2369 -15 c-6 -9 -12
-16 -12 -15 0 1 -6 9 -12 18 -10 12 -8 15 11 15 20 0 22 -3 13 -18z m-2719 5
c-10 -2 -28 -2 -40 0 -13 2 -5 4 17 4 22 1 32 -1 23 -4z m419 1 c-3 -3 -12 -4
-19 -1 -8 3 -5 6 6 6 11 1 17 -2 13 -5z m-487 -14 c0 -5 -9 -10 -21 -10 -11 0
-17 5 -14 10 3 6 13 10 21 10 8 0 14 -4 14 -10z m596 -7 c18 -2 44 -7 56 -12
17 -7 11 -8 -24 -6 -44 3 -88 19 -88 31 0 3 5 2 12 -2 6 -4 26 -9 44 -11z
m-2833 -24 c-22 -37 -43 -57 -43 -40 0 6 3 11 8 11 4 0 15 14 24 30 9 17 20
30 23 30 3 0 -2 -14 -12 -31z m2156 12 c-20 -11 -62 -24 -94 -30 -32 -6 -63
-15 -69 -19 -18 -14 -46 -22 -46 -14 0 13 148 62 165 56 8 -4 15 -1 15 4 0 10
20 18 50 21 8 0 -1 -8 -21 -18z m2884 4 c-3 -9 -8 -14 -10 -11 -3 3 -2 9 2 15
9 16 15 13 8 -4z m-2746 -1 c-3 -3 -12 -4 -19 -1 -8 3 -5 6 6 6 11 1 17 -2 13
-5z m446 -1 c-7 -2 -19 -2 -25 0 -7 3 -2 5 12 5 14 0 19 -2 13 -5z m2344 -86
c21 -27 23 -27 23 -7 0 12 7 28 15 36 8 9 15 12 15 7 0 -5 -6 -15 -12 -21 -10
-10 -10 -17 0 -32 9 -16 9 -18 -2 -14 -21 8 -26 -8 -10 -36 9 -18 13 -20 14
-8 0 9 4 19 8 22 4 3 7 -8 6 -25 -1 -16 2 -29 8 -29 5 0 7 -4 4 -9 -3 -4 3
-25 14 -45 14 -29 19 -33 23 -19 2 10 3 3 1 -15 -1 -18 1 -30 6 -27 6 4 7 -2
3 -11 -4 -12 -3 -15 6 -10 8 5 12 3 10 -5 -3 -29 1 -48 16 -63 8 -8 11 -17 6
-20 -5 -3 -14 9 -21 27 -19 48 -147 304 -165 329 -8 13 -15 27 -15 33 0 5 6 1
12 -10 6 -11 22 -33 35 -48z m326 36 c-4 -11 -3 -14 5 -9 14 8 15 5 5 -19 -5
-14 -8 -12 -18 11 -13 30 -10 48 5 39 5 -3 6 -13 3 -22z m-5493 1 c0 -9 -5
-14 -12 -12 -18 6 -21 28 -4 28 9 0 16 -7 16 -16z m3136 -9 c10 -8 14 -15 8
-15 -5 0 -19 7 -30 15 -10 8 -14 15 -8 15 5 0 19 -7 30 -15z m-1137 -28 c-13
-13 -30 -21 -37 -19 -7 3 -23 -4 -35 -15 -12 -11 -34 -23 -49 -27 -16 -3 -28
-11 -28 -17 0 -6 -4 -7 -10 -4 -5 3 -10 1 -10 -4 0 -6 -5 -11 -11 -11 -20 0 4
22 45 42 22 11 64 32 91 48 61 35 76 37 44 7z m1221 -7 c8 -5 11 -10 5 -10 -5
0 -17 5 -25 10 -8 5 -10 10 -5 10 6 0 17 -5 25 -10z m2310 -19 c0 -9 3 -21 8
-27 4 -5 -1 -1 -10 9 -19 20 -25 52 -8 42 6 -3 10 -14 10 -24z m-227 2 c-7 -2
-19 -2 -25 0 -7 3 -2 5 12 5 14 0 19 -2 13 -5z m201 -9 c3 -8 2 -12 -4 -9 -6
3 -10 10 -10 16 0 14 7 11 14 -7z m-3374 -4 c0 -5 -4 -10 -10 -10 -5 0 -10 5
-10 10 0 6 5 10 10 10 6 0 10 -4 10 -10z m1137 4 c-3 -3 -12 -4 -19 -1 -8 3
-5 6 6 6 11 1 17 -2 13 -5z m-3570 -61 c-3 -10 -5 -4 -5 12 0 17 2 24 5 18 2
-7 2 -21 0 -30z m767 22 c-23 -7 -55 -21 -70 -31 l-29 -18 19 22 c20 23 64 40
101 40 11 0 1 -6 -21 -13z m2906 -19 c0 -2 -12 -3 -27 -3 -16 0 -22 2 -15 4
10 4 8 9 -5 19 -14 12 -11 11 15 -1 17 -8 32 -17 32 -19z m1320 22 c-14 -5
-37 -17 -53 -25 -15 -8 -32 -11 -37 -8 -6 3 -10 2 -10 -4 0 -5 -18 -17 -40
-27 -22 -10 -40 -22 -40 -27 0 -4 -4 -6 -9 -2 -5 3 -16 -2 -24 -10 -9 -8 -18
-15 -21 -15 -3 0 -43 -21 -88 -46 -136 -74 -73 -30 88 62 140 81 209 113 244
113 8 0 4 -5 -10 -11z m-4140 -8 c8 -5 11 -10 5 -10 -5 0 -17 5 -25 10 -8 5
-10 10 -5 10 6 0 17 -5 25 -10z m4231 -11 l24 -21 -25 15 c-14 8 -35 17 -45
20 -18 4 -18 5 1 6 12 0 32 -8 45 -20z m-5101 -4 c0 -8 -4 -15 -10 -15 -5 0
-10 7 -10 15 0 8 5 15 10 15 6 0 10 -7 10 -15z m4987 -10 c0 -8 -6 -15 -14
-15 -17 0 -17 17 0 23 6 3 12 6 13 6 0 1 1 -6 1 -14z m-4865 -49 c-6 -48 -12
-46 -12 5 0 22 4 38 8 35 4 -3 6 -21 4 -40z m893 -14 c-5 -5 -83 36 -89 47 -3
5 16 -3 43 -18 27 -14 48 -27 46 -29z m1068 33 c-10 -13 -25 -24 -33 -24 -9 0
-4 9 15 24 38 31 40 31 18 0z m3061 -71 c-5 -18 -10 -22 -17 -15 -8 8 -8 14 0
22 6 6 9 18 6 26 -5 12 -7 12 -15 1 -7 -9 -8 -8 -4 5 3 10 6 26 7 35 0 9 7 2
15 -16 8 -18 11 -44 8 -58z m441 76 c3 -5 1 -10 -4 -10 -6 0 -11 5 -11 10 0 6
2 10 4 10 3 0 8 -4 11 -10z m305 6 c0 -3 -4 -8 -10 -11 -5 -3 -10 -1 -10 4 0
6 5 11 10 11 6 0 10 -2 10 -4z m-5203 -28 c-3 -8 -6 -5 -6 6 -1 11 2 17 5 13
3 -3 4 -12 1 -19z m3110 -18 c68 -52 69 -61 1 -13 -65 45 -74 53 -63 53 4 0
32 -18 62 -40z m-3093 -69 c4 -6 12 -9 17 -6 5 3 6 -1 3 -10 -6 -13 -10 -11
-25 12 -11 15 -18 39 -18 53 1 22 2 22 8 -6 4 -17 11 -36 15 -43z m1325 66
c-2 -1 -13 -9 -24 -17 -19 -14 -19 -14 -6 3 7 9 18 17 24 17 6 0 8 -1 6 -3z
m-1764 -17 c-3 -5 -12 -10 -18 -10 -7 0 -6 4 3 10 19 12 23 12 15 0z m-262
-15 c-3 -9 -8 -14 -10 -11 -3 3 -2 9 2 15 9 16 15 13 8 -4z m5119 -32 c7 -9 7
-13 -1 -13 -14 0 -31 41 -23 55 4 6 8 1 10 -10 2 -11 9 -26 14 -32z m805 15
c-3 -8 -6 -5 -6 6 -1 11 2 17 5 13 3 -3 4 -12 1 -19z m-5683 4 c2 -4 0 -14 -6
-22 -8 -12 -9 -12 -5 2 3 9 1 19 -6 22 -9 3 -9 5 0 5 6 1 14 -3 17 -7z m1729
-3 c-14 -14 10 -44 26 -35 6 4 8 -9 6 -30 -2 -20 -9 -40 -15 -44 -9 -6 -9 -9
1 -13 8 -3 2 -6 -13 -6 -19 -1 -28 -6 -28 -17 0 -14 3 -14 15 -4 13 11 15 7
15 -26 0 -42 -12 -69 -31 -69 -6 0 -18 -10 -26 -22 -11 -16 -12 -23 -4 -23 7
0 9 -5 5 -11 -4 -8 -9 -7 -14 2 -6 9 -12 9 -24 -4 -9 -8 -16 -18 -16 -21 0 -4
-11 -23 -24 -44 -12 -20 -24 -41 -25 -47 -1 -5 -9 -9 -17 -7 -8 2 -14 -4 -14
-13 0 -10 5 -13 11 -9 7 4 10 1 7 -7 -3 -8 -12 -15 -21 -17 -28 -6 -77 -55
-77 -78 0 -18 -5 -21 -32 -18 -17 2 -37 -1 -44 -7 -11 -9 -15 -7 -20 5 -9 24
-22 20 -54 -16 l-29 -32 10 40 c14 50 92 206 133 264 81 116 176 222 264 293
33 27 56 37 35 16z m-819 -17 c2 -4 -4 -9 -15 -9 -11 -1 -17 2 -14 8 7 11 22
12 29 1z m-934 -6 c0 -3 -4 -8 -10 -11 -5 -3 -10 -1 -10 4 0 6 5 11 10 11 6 0
10 -2 10 -4z m3681 -13 c13 -16 12 -17 -3 -4 -10 7 -18 15 -18 17 0 8 8 3 21
-13z m1197 -18 c-7 -7 -35 -25 -63 -40 -27 -15 -42 -20 -32 -12 15 13 16 15 2
21 -8 3 -15 1 -15 -4 0 -6 -9 -10 -20 -10 -11 0 -20 7 -20 15 0 17 55 21 65 5
4 -6 11 -7 17 -4 6 4 5 10 -3 16 -10 6 -7 7 10 3 16 -5 21 -4 17 4 -4 6 -1 9
7 5 8 -3 17 2 21 11 3 9 11 13 17 9 8 -4 7 -10 -3 -19z m-4354 -1 c3 -8 2 -12
-4 -9 -6 3 -10 10 -10 16 0 14 7 11 14 -7z m466 -4 c6 -11 9 -20 7 -20 -2 0
-12 9 -22 20 -10 11 -13 20 -7 20 6 0 16 -9 22 -20z m-1340 -23 c0 -7 -7 -22
-15 -33 -13 -17 -13 -16 -3 14 13 34 18 40 18 19z m956 -12 c1 -9 -4 -11 -14
-7 -10 4 -12 7 -4 10 7 2 9 9 5 15 -3 7 -2 8 2 4 5 -4 10 -14 11 -22z m454
-17 c33 -45 38 -84 16 -127 -17 -32 -57 -61 -83 -60 -15 0 -14 2 4 9 27 11 73
51 73 63 0 6 -9 2 -19 -7 -19 -17 -20 -17 -31 4 -10 18 -9 21 0 15 10 -6 12
-1 8 18 -3 15 -1 24 4 20 6 -3 7 -19 4 -36 -6 -29 -5 -29 12 -14 10 10 22 14
25 10 4 -3 7 5 7 19 0 33 -27 88 -54 110 -11 10 -15 18 -9 18 7 0 26 -19 43
-42z m3301 29 c-6 -8 -9 -17 -6 -21 3 -3 -1 -1 -7 4 -10 9 -10 13 2 20 21 13
24 12 11 -3z m-620 -14 c13 -16 12 -17 -3 -4 -10 7 -18 15 -18 17 0 8 8 3 21
-13z m-3764 -15 c-3 -8 -6 -5 -6 6 -1 11 2 17 5 13 3 -3 4 -12 1 -19z m4341
-23 c-6 -14 -13 -23 -15 -21 -5 5 15 46 22 46 3 0 -1 -11 -7 -25z m-4360 -26
c-6 -16 -12 -28 -14 -26 -5 5 13 57 20 57 3 0 0 -14 -6 -31z m731 5 c14 -12
-19 -1 -35 12 -18 14 -18 14 6 3 14 -6 27 -13 29 -15z m4016 -2 c-56 -29 -102
-37 -83 -14 6 7 14 9 17 4 3 -6 20 -2 38 8 18 9 31 19 29 21 -3 2 8 5 22 6 22
1 18 -4 -23 -25z m736 14 c5 3 9 0 9 -7 0 -7 7 -4 16 7 11 13 10 10 -2 -13
l-18 -33 -13 23 c-7 12 -12 27 -12 32 0 6 3 4 6 -3 2 -6 9 -10 14 -6z m322 -1
c-3 -9 -8 -14 -10 -11 -3 3 -2 9 2 15 9 16 15 13 8 -4z m-5029 -20 c3 -8 12
-15 19 -15 8 0 14 -7 14 -14 0 -12 -6 -11 -28 5 -35 25 -45 39 -26 39 8 0 17
-7 21 -15z m4746 -10 c-10 -12 -10 -18 1 -32 10 -11 10 -14 2 -9 -8 4 -13 2
-13 -8 0 -8 5 -18 10 -21 6 -3 10 -18 10 -33 -1 -22 -4 -18 -20 22 -18 46 -18
51 -3 77 9 16 19 26 21 24 3 -3 -1 -11 -8 -20z m293 -5 c-3 -12 -8 -19 -11
-16 -5 6 5 36 12 36 2 0 2 -9 -1 -20z m-1943 -15 c13 -14 21 -25 18 -25 -2 0
-15 11 -28 25 -13 14 -21 25 -18 25 2 0 15 -11 28 -25z m-4223 -7 c-3 -8 -6
-5 -6 6 -1 11 2 17 5 13 3 -3 4 -12 1 -19z m4712 -28 c3 -3 17 -18 31 -34 24
-27 24 -28 3 -17 -31 16 -53 51 -52 81 l2 25 4 -25 c3 -14 8 -27 12 -30z m181
40 c-12 -8 -10 -10 10 -10 l25 -1 -22 -18 c-20 -17 -21 -20 -6 -25 9 -4 21 -1
27 5 8 9 7 10 -4 4 -12 -6 -12 -5 -3 5 6 7 31 16 55 20 39 8 41 7 23 -7 -11
-8 -57 -33 -103 -55 -69 -34 -87 -39 -105 -30 -20 10 -21 11 -2 10 41 -2 55 2
55 18 0 12 6 15 25 10 28 -7 34 8 8 19 -17 6 -17 8 2 22 18 14 18 15 2 9 -11
-3 -23 -4 -28 -1 -13 9 13 34 36 34 17 1 17 -1 5 -9z m1315 -98 c-2 -2 -7 7
-11 22 -3 14 -10 26 -15 26 -5 0 -9 15 -9 33 1 29 3 27 20 -22 11 -30 18 -57
15 -59z m-5906 38 c1 -13 0 -13 -9 0 -5 8 -9 24 -9 35 l0 20 9 -20 c5 -11 9
-27 9 -35z m23 13 c-2 -12 -6 -23 -7 -23 -1 0 -5 11 -7 23 -3 14 0 24 7 24 7
0 10 -10 7 -24z m885 13 c0 -8 -6 -12 -14 -9 -7 3 -13 9 -13 14 0 5 6 9 13 9
8 0 14 -6 14 -14z m1787 2 c-3 -4 5 -8 18 -9 21 -1 -122 -37 -167 -42 -11 -1
-30 -8 -43 -15 -13 -8 -31 -15 -40 -17 -9 -2 -28 -7 -42 -10 -20 -5 -17 -2 10
13 19 11 40 18 47 15 7 -3 13 -1 13 5 0 11 39 24 85 28 17 1 41 8 55 14 25 10
25 10 -3 5 -25 -5 -27 -4 -15 9 13 16 91 20 82 4z m1759 -6 c-3 -7 -9 -10 -12
-5 -3 4 -10 11 -15 15 -4 4 1 6 12 5 12 -1 18 -6 15 -15z m1407 9 c0 -6 -4
-13 -10 -16 -5 -3 -10 1 -10 9 0 9 5 16 10 16 6 0 10 -4 10 -9z m-6179 -28
c-12 -20 -14 -14 -5 12 4 9 9 14 11 11 3 -2 0 -13 -6 -23z m1263 6 c-3 -5 7
-9 23 -9 15 0 35 -5 43 -11 12 -9 12 -10 -4 -5 -16 6 -17 4 -6 -9 17 -21 9
-19 -36 8 -38 21 -59 52 -29 41 8 -4 12 -10 9 -15z m66 11 c8 -5 11 -10 5 -10
-5 0 -17 5 -25 10 -8 5 -10 10 -5 10 6 0 17 -5 25 -10z m1773 3 c-7 -2 -19 -2
-25 0 -7 3 -2 5 12 5 14 0 19 -2 13 -5z m-258 -13 c-3 -5 -14 -10 -23 -10 -15
0 -15 2 -2 10 20 13 33 13 25 0z m1475 -60 c22 -32 40 -63 40 -67 0 -4 -10 7
-21 25 -12 17 -25 32 -30 32 -5 0 -8 6 -6 13 1 6 -3 11 -10 10 -7 -2 -10 4 -7
12 4 8 1 15 -5 15 -6 0 -11 -6 -11 -12 0 -7 -5 -5 -11 5 -11 19 -3 41 12 32 5
-4 27 -33 49 -65z m-940 20 c0 -5 -2 -10 -4 -10 -3 0 -8 5 -11 10 -3 6 -1 10
4 10 6 0 11 -4 11 -10z m-3099 -151 c-22 -74 -44 -154 -49 -179 l-9 -45 1 61
c0 36 5 57 9 50 5 -6 7 0 4 16 -2 15 -1 25 3 23 10 -6 36 93 32 121 -1 12 4
24 12 27 8 3 17 20 21 37 4 17 9 29 11 27 3 -3 -13 -65 -35 -138z m1086 135
c-3 -3 -12 -4 -19 -1 -8 3 -5 6 6 6 11 1 17 -2 13 -5z m1356 -1 c-7 -2 -19 -2
-25 0 -7 3 -2 5 12 5 14 0 19 -2 13 -5z m-2751 -67 c-18 -39 -36 -107 -36
-141 -1 -18 -5 -31 -9 -28 -11 6 -2 54 26 153 12 41 23 67 25 56 2 -10 0 -28
-6 -40z m5948 26 c0 -15 -2 -15 -10 -2 -13 20 -13 33 0 25 6 -3 10 -14 10 -23z
m317 6 c-3 -8 -6 -5 -6 6 -1 11 2 17 5 13 3 -3 4 -12 1 -19z m-270 -25 c-3
-10 -5 -4 -5 12 0 17 2 24 5 18 2 -7 2 -21 0 -30z m-3252 17 c-3 -5 -11 -10
-16 -10 -5 0 -34 -18 -64 -40 -30 -22 -58 -40 -62 -40 -4 0 3 8 16 18 13 9 37
29 55 43 17 15 40 29 51 32 11 2 21 5 23 6 2 0 0 -3 -3 -9z m815 -9 c0 -5 -9
-7 -20 -4 -11 3 -20 7 -20 9 0 2 9 4 20 4 11 0 20 -4 20 -9z m112 -46 c-2 -12
1 -15 10 -9 10 6 11 5 1 -7 -9 -11 -8 -19 3 -34 8 -11 18 -18 21 -15 3 3 7 -3
9 -12 3 -24 -1 -23 -36 9 -23 20 -27 29 -19 40 9 10 8 13 -1 13 -9 0 -9 4 1
17 12 15 12 16 -4 10 -11 -4 -16 -3 -12 4 10 16 30 4 27 -16z m-38 -16 c-2 -5
-14 -1 -24 9 -26 22 -25 24 5 10 13 -6 22 -15 19 -19z m2366 -87 c0 -26 -16
-1 -29 47 -7 23 -15 50 -17 60 -3 9 7 -8 21 -38 14 -29 25 -61 25 -69z m293
98 c3 -11 1 -18 -4 -14 -5 3 -9 12 -9 20 0 20 7 17 13 -6z m-1914 -27 c9 -7
11 -13 6 -13 -16 0 -35 22 -34 40 0 13 1 13 6 0 4 -8 13 -20 22 -27z m39 16
c19 -30 11 -32 -11 -3 -10 13 -14 24 -10 24 5 0 14 -9 21 -21z m-4149 -39 c0
-10 -3 -8 -9 5 -12 27 -12 43 0 25 5 -8 9 -22 9 -30z m-272 -2 c-3 -8 -6 -5
-6 6 -1 11 2 17 5 13 3 -3 4 -12 1 -19z m2585 -10 c-7 -7 -12 -8 -12 -2 0 14
12 26 19 19 2 -3 -1 -11 -7 -17z m3725 -10 c-3 -7 -5 -2 -5 12 0 14 2 19 5 13
2 -7 2 -19 0 -25z m-3753 3 c3 -5 -10 -29 -30 -53 -19 -23 -42 -51 -50 -61 -8
-9 -14 -21 -14 -27 0 -15 -18 -21 -26 -9 -4 8 -3 9 4 5 7 -4 12 -2 12 4 0 7
14 30 31 51 17 22 27 44 23 50 -5 8 -3 9 5 5 13 -9 43 23 35 36 -3 5 -3 8 0 8
3 0 7 -4 10 -9z m3713 -23 c-3 -8 -6 -5 -6 6 -1 11 2 17 5 13 3 -3 4 -12 1
-19z m-2502 0 c5 4 5 1 1 -6 -4 -7 -2 -19 4 -27 7 -8 9 -15 6 -15 -4 0 1 -12
12 -27 29 -43 36 -61 13 -33 -42 50 -60 77 -54 83 3 4 0 15 -8 24 -12 16 -12
17 2 6 9 -7 20 -9 24 -5z m708 -45 c-3 -7 -1 -13 5 -13 11 0 37 -68 29 -76 -2
-3 -8 8 -12 23 -3 15 -12 35 -19 43 -7 8 -13 26 -14 40 -1 18 1 21 8 11 4 -8
6 -20 3 -28z m-2000 -8 c-3 -9 -8 -14 -10 -11 -3 3 -2 9 2 15 9 16 15 13 8 -4z
m-2527 -41 c-4 -20 -10 -34 -12 -31 -3 3 -2 21 2 41 3 21 9 35 11 32 3 -3 2
-21 -1 -42z m6061 4 c-3 -7 -5 -2 -5 12 0 14 2 19 5 13 2 -7 2 -19 0 -25z
m-3579 -13 c-3 -3 -9 2 -12 12 -6 14 -5 15 5 6 7 -7 10 -15 7 -18z m800 -40
c-3 -3 -9 2 -12 12 -6 14 -5 15 5 6 7 -7 10 -15 7 -18z m2802 -27 c0 -16 4
-28 9 -28 4 0 6 -12 3 -26 -3 -15 -1 -24 4 -21 5 3 10 -13 11 -36 2 -85 11
-151 22 -155 12 -4 14 -120 2 -192 -6 -37 -8 -24 -14 75 -6 120 -29 299 -47
378 -12 53 -12 66 0 47 5 -8 10 -27 10 -42z m317 15 c-3 -10 -5 -4 -5 12 0 17
2 24 5 18 2 -7 2 -21 0 -30z m-6422 -43 c-4 -28 -9 -49 -12 -47 -2 3 -1 28 3
56 4 28 9 50 11 47 3 -3 2 -28 -2 -56z m3920 39 c10 -30 2 -32 -12 -3 -6 13
-7 24 -3 24 5 0 12 -9 15 -21z m-575 -21 c0 -6 -7 -5 -15 2 -8 7 -15 17 -15
22 0 6 7 5 15 -2 8 -7 15 -17 15 -22z m1260 -3 c0 -5 -5 -3 -10 5 -5 8 -10 20
-10 25 0 6 5 3 10 -5 5 -8 10 -19 10 -25z m-4286 -44 c-4 -28 -9 -50 -11 -47
-3 3 -2 28 2 56 4 28 9 49 12 47 2 -3 1 -28 -3 -56z m1506 39 c6 -11 8 -20 6
-20 -3 0 -10 9 -16 20 -6 11 -8 20 -6 20 3 0 10 -9 16 -20z m664 -10 c-10 -16
-19 -28 -21 -26 -5 5 22 56 30 56 5 0 0 -13 -9 -30z m1461 -10 c-4 -6 5 -33
40 -125 6 -14 5 -17 -3 -10 -5 6 -17 32 -26 59 -9 26 -21 56 -26 66 -6 12 -5
17 5 17 8 0 12 -3 10 -7z m2482 -12 c-3 -8 -6 -5 -6 6 -1 11 2 17 5 13 3 -3 4
-12 1 -19z m-1805 -48 c1 -17 5 -30 10 -30 4 0 8 -8 8 -17 0 -15 -4 -13 -19 7
-20 25 -33 78 -23 94 8 13 23 -21 24 -54z m-1182 20 l35 -31 -42 27 c-24 15
-43 28 -43 30 0 11 20 1 50 -26z m557 8 c-3 -8 -6 -5 -6 6 -1 11 2 17 5 13 3
-3 4 -12 1 -19z m-1546 -25 c-12 -20 -14 -14 -5 12 4 9 9 14 11 11 3 -2 0 -13
-6 -23z m614 1 c-16 -13 -29 -29 -28 -34 2 -5 -4 -7 -12 -3 -12 4 -6 12 22 34
47 35 59 37 18 3z m1516 -21 c-12 -20 -14 -14 -5 12 4 9 9 14 11 11 3 -2 0
-13 -6 -23z m-4604 -20 c-3 -10 -5 -4 -5 12 0 17 2 24 5 18 2 -7 2 -21 0 -30z
m1803 -3 c-16 -30 -22 -19 -7 13 6 14 13 22 15 17 2 -5 -2 -19 -8 -30z m4550
-7 c-4 -42 -5 -44 -8 -15 -3 30 2 62 10 62 2 0 1 -21 -2 -47z m-6079 -28 c7
-21 6 -26 -1 -19 -6 6 -13 28 -15 50 -2 21 -2 30 1 19 3 -11 10 -33 15 -50z
m49 23 c0 -32 -15 -19 -16 13 -1 20 2 26 7 17 5 -7 9 -21 9 -30z m2131 5 c-12
-20 -14 -14 -5 12 4 9 9 14 11 11 3 -2 0 -13 -6 -23z m573 -4 c-29 -12 -36
-10 -22 5 7 7 19 11 27 8 11 -4 10 -7 -5 -13z m-49 -8 c-6 -5 -21 -11 -35 -15
-21 -5 -20 -3 5 9 35 17 42 18 30 6z m624 -64 c0 -6 -5 -2 -11 11 -6 13 -17
21 -24 18 -8 -3 -16 -1 -19 4 -4 6 -1 10 6 10 8 0 8 4 -1 18 -7 9 1 2 19 -16
17 -18 31 -38 30 -45z m2868 41 c-3 -8 -6 -5 -6 6 -1 11 2 17 5 13 3 -3 4 -12
1 -19z m-4036 -50 c-6 -29 -13 -64 -15 -78 -2 -16 -4 -11 -5 13 -1 40 18 131
26 123 3 -2 0 -28 -6 -58z m-2444 5 c-3 -10 -5 -2 -5 17 0 19 2 27 5 18 2 -10
2 -26 0 -35z m1788 -41 c-4 -37 -10 -61 -12 -54 -3 8 -2 44 2 80 4 37 10 61
12 54 3 -8 2 -44 -2 -80z m1125 78 c-8 -5 -19 -10 -25 -10 -5 0 -3 5 5 10 8 5
20 10 25 10 6 0 3 -5 -5 -10z m-2593 -37 c-3 -10 -5 -4 -5 12 0 17 2 24 5 18
2 -7 2 -21 0 -30z m3717 -43 c4 -57 4 -59 -4 -20 -19 95 -20 104 -11 95 5 -6
11 -39 15 -75z m651 21 c-9 -8 -25 21 -25 44 0 16 3 14 15 -9 9 -16 13 -32 10
-35z m-1838 31 c-10 -10 -17 -24 -17 -30 0 -6 -4 -14 -10 -17 -6 -4 -6 4 1 22
5 15 16 31 22 35 20 13 21 9 4 -10z m3643 -32 c0 -11 -2 -20 -4 -20 -2 0 -6 9
-9 20 -3 11 -1 20 4 20 5 0 9 -9 9 -20z m-30 -10 c0 -5 -5 -10 -11 -10 -5 0
-7 5 -4 10 3 6 8 10 11 10 2 0 4 -4 4 -10z m-6473 -102 c-2 -18 -4 -4 -4 32 0
36 2 50 4 33 2 -18 2 -48 0 -65z m320 30 c-2 -13 -4 -3 -4 22 0 25 2 35 4 23
2 -13 2 -33 0 -45z m2093 58 c0 -3 -4 -8 -10 -11 -5 -3 -10 -1 -10 4 0 6 5 11
10 11 6 0 10 -2 10 -4z m2287 -33 c-3 -10 -5 -4 -5 12 0 17 2 24 5 18 2 -7 2
-21 0 -30z m-1027 -6 c0 -5 -4 -5 -10 -2 -5 3 -10 14 -10 23 0 15 2 15 10 2 5
-8 10 -19 10 -23z m-852 -7 c-1 -16 -5 -30 -10 -30 -9 0 -10 7 -2 38 9 30 13
28 12 -8z m3690 -314 c-2 -166 -8 -309 -14 -318 -8 -14 -10 201 -3 262 1 8 1
53 -1 100 -3 83 -3 84 -10 30 -7 -55 -7 -55 -8 23 -1 48 2 77 9 77 5 0 7 5 4
10 -3 6 -3 42 1 81 5 55 9 67 17 54 6 -11 8 -131 5 -319z m-5136 306 c11 -11
10 -12 -5 -6 -9 3 -23 2 -30 -4 -6 -5 -31 -13 -54 -17 -39 -6 -43 -5 -43 15 0
21 -2 21 -220 19 -121 0 -220 -5 -220 -9 0 -5 -9 -11 -19 -15 -11 -3 -29 -20
-41 -38 -23 -34 -23 -29 -2 13 29 56 42 58 344 57 213 -2 280 -5 290 -15z
m1015 -74 c-2 -18 -4 -4 -4 32 0 36 2 50 4 33 2 -18 2 -48 0 -65z m3312 73
c11 -11 21 -17 24 -15 9 9 40 -51 44 -85 3 -30 2 -33 -12 -21 -12 10 -13 16
-4 27 7 7 9 17 5 20 -4 4 -11 1 -16 -7 -5 -8 -13 -11 -17 -6 -4 5 -2 11 5 13
6 3 12 11 12 19 0 9 -4 12 -10 9 -6 -4 -7 1 -3 11 5 13 3 15 -7 9 -8 -5 -19 0
-29 14 -16 21 -18 21 -81 7 -36 -9 -76 -15 -90 -15 -20 1 -18 3 10 10 25 5 12
7 -45 5 -58 -3 -69 -1 -40 4 24 5 -32 7 -137 6 -127 -1 -181 -5 -190 -13 -6
-7 -16 -13 -21 -13 -11 0 14 25 33 32 8 3 135 6 282 7 253 1 269 0 287 -18z
m-989 -78 c0 -47 -4 -73 -9 -65 -5 8 -7 35 -6 60 2 26 4 55 4 65 1 9 3 17 6
17 3 0 5 -35 5 -77z m-3281 19 c15 -28 9 -84 -13 -117 -16 -25 -46 -35 -46
-15 0 6 5 10 11 10 11 0 48 39 49 52 0 4 -8 5 -17 2 -15 -5 -15 -3 1 10 11 9
14 16 8 16 -7 0 -12 11 -12 24 0 14 -9 31 -21 39 -14 11 -17 16 -7 19 15 5 29
-7 47 -40z m355 -77 c-2 -44 -1 -72 2 -62 9 27 32 21 26 -8 -2 -14 -9 -22 -14
-19 -6 4 -6 -1 0 -13 6 -10 7 -25 2 -32 -9 -15 -3 -85 10 -116 5 -11 11 -36
13 -55 l6 -35 -14 31 c-8 18 -19 61 -25 95 -13 81 -23 353 -11 319 5 -14 7
-61 5 -105z m1899 -15 c-7 -69 -18 -92 -28 -61 -4 13 -1 28 6 38 9 10 13 42
12 92 -1 68 0 71 8 31 4 -25 5 -70 2 -100z m-1268 -366 l-15 -29 0 51 c0 27
-5 55 -12 62 -9 9 -9 12 0 12 9 0 12 50 12 196 0 127 3 193 10 189 6 -3 11 0
12 7 2 7 4 -93 5 -223 3 -195 1 -241 -12 -265z m1642 74 c-1 -79 -3 -15 -3
142 0 157 2 221 3 143 2 -79 2 -207 0 -285z m1019 388 c0 -13 -4 -22 -7 -20
-3 2 -6 -11 -7 -28 -1 -24 2 -28 8 -18 7 11 10 6 10 -18 0 -29 5 -35 38 -49
20 -8 40 -20 43 -25 8 -12 79 -6 80 7 0 6 -10 13 -23 17 -14 5 -8 6 17 3 22
-3 68 -5 103 -5 70 0 85 -17 20 -23 -24 -2 35 -4 130 -5 96 0 176 -3 179 -6 3
-3 -114 -5 -261 -5 -186 0 -265 3 -263 11 1 6 -4 13 -12 16 -8 3 -11 0 -7 -7
9 -14 -5 -14 -25 2 -41 31 -59 100 -39 151 12 33 18 33 16 2z m-2274 -24 c-2
-22 1 -56 7 -77 10 -36 8 -55 -4 -43 -8 8 -18 126 -12 142 10 26 13 19 9 -22z
m-2494 -164 c-1 -166 -2 -173 -7 -73 -6 105 -2 255 5 255 2 0 3 -82 2 -182z
m4382 172 c0 -5 -5 -10 -11 -10 -5 0 -7 5 -4 10 3 6 8 10 11 10 2 0 4 -4 4
-10z m-3932 -22 c-2 -50 2 -56 39 -63 23 -4 39 -3 41 3 3 10 55 -2 77 -18 14
-10 207 -19 272 -13 53 6 53 6 59 44 5 30 11 39 26 39 17 0 19 -4 13 -27 -4
-16 -7 -35 -7 -44 1 -20 -59 -26 -288 -32 -139 -4 -140 -4 -25 2 l120 7 -132
2 c-72 1 -140 5 -150 8 -15 5 -15 4 -3 -5 11 -8 12 -11 2 -11 -7 0 -10 -4 -7
-10 3 -5 11 -10 16 -10 6 0 7 5 4 10 -3 6 -2 10 4 10 5 0 12 -4 16 -10 3 -5
103 -9 246 -8 132 0 243 -2 246 -6 3 -3 -112 -6 -256 -6 -287 0 -307 3 -335
59 -13 25 -13 32 2 64 19 43 21 45 20 15z m4902 2 c0 -5 10 -10 21 -10 17 0
19 -3 10 -14 -16 -19 -51 -8 -51 15 0 11 5 19 10 19 6 0 10 -4 10 -10z m797
-67 c-2 -16 -4 -3 -4 27 0 30 2 43 4 28 2 -16 2 -40 0 -55z m-6180 -5 c-2 -13
-4 -3 -4 22 0 25 2 35 4 23 2 -13 2 -33 0 -45z m2550 30 c-3 -7 -5 -2 -5 12 0
14 2 19 5 13 2 -7 2 -19 0 -25z m-2840 -110 c-2 -24 -4 -7 -4 37 0 44 2 63 4
43 2 -21 2 -57 0 -80z m1000 106 c-3 -3 -12 -4 -19 -1 -8 3 -5 6 6 6 11 1 17
-2 13 -5z m1863 -57 c0 -5 -7 -2 -15 7 -8 8 -15 20 -15 27 0 14 29 -20 30 -34z
m2877 -2 c-15 -14 -33 -25 -39 -25 -6 0 4 11 23 24 44 32 51 32 16 1z m-3338
-17 c0 -18 -4 -55 -9 -83 -7 -47 -7 -45 -9 33 0 49 3 82 9 82 6 0 10 -15 9
-32z m2315 -57 c-3 -44 -10 -78 -15 -75 -5 3 -9 17 -9 32 0 30 22 133 28 127
2 -2 0 -40 -4 -84z m906 79 c11 -7 7 -10 -17 -10 -18 0 -33 5 -33 10 0 13 30
13 50 0z m93 3 c-7 -2 -21 -2 -30 0 -10 3 -4 5 12 5 17 0 24 -2 18 -5z m489
-33 c-2 -22 -6 -40 -8 -40 -2 0 -4 18 -4 40 0 22 3 40 8 40 4 0 6 -18 4 -40z
m-6075 -22 c-2 -13 -4 -5 -4 17 -1 22 1 32 4 23 2 -10 2 -28 0 -40z m1228 43
c-3 -5 2 -12 10 -14 12 -4 12 -5 -1 -3 -19 1 -32 26 -14 26 6 0 9 -4 5 -9z
m1508 -100 c10 -18 13 -30 7 -26 -15 9 -50 84 -49 105 0 8 6 2 12 -15 7 -16
20 -45 30 -64z m786 -2 c-13 -22 -25 -36 -27 -30 -2 6 6 23 17 37 12 15 21 34
22 43 0 10 2 11 6 4 2 -7 -6 -31 -18 -54z m-752 -40 c-3 -10 4 -27 15 -38 10
-12 14 -21 9 -21 -14 0 -35 40 -36 70 -1 14 -4 36 -8 50 -4 14 0 10 9 -9 8
-19 13 -42 11 -52z m3401 -49 c-1 -28 -2 -25 -8 15 -5 28 -8 66 -8 85 1 28 2
25 8 -15 5 -27 8 -66 8 -85z m-6171 98 c-3 -8 -6 -5 -6 6 -1 11 2 17 5 13 3
-3 4 -12 1 -19z m6072 -138 c-5 -9 -8 13 -7 60 l1 75 7 -60 c5 -33 4 -67 -1
-75z m-6192 28 c-2 -13 -4 -3 -4 22 0 25 2 35 4 23 2 -13 2 -33 0 -45z m280 0
c-2 -13 -4 -3 -4 22 0 25 2 35 4 23 2 -13 2 -33 0 -45z m6170 40 c-3 -8 -6 -5
-6 6 -1 11 2 17 5 13 3 -3 4 -12 1 -19z m-2853 -13 c-9 -14 -18 -25 -21 -25
-5 0 5 18 20 38 17 22 18 13 1 -13z m1093 -17 c-3 -7 -5 -2 -5 12 0 14 2 19 5
13 2 -7 2 -19 0 -25z m-12 -57 c-4 -17 -11 -31 -16 -31 -12 0 -12 17 1 25 6 3
10 16 10 27 0 12 3 19 6 15 3 -3 3 -19 -1 -36z m-1672 -14 c26 -15 54 -27 61
-27 8 0 20 -7 27 -16 12 -14 9 -14 -26 1 -63 26 -125 65 -125 78 0 8 3 9 8 1
4 -6 29 -23 55 -37z m486 26 c-7 -10 -14 -20 -16 -22 -1 -1 -7 0 -13 4 -8 5
-4 12 12 20 31 18 32 18 17 -2z m36 -3 c-17 -19 -97 -70 -109 -70 -18 0 -1 18
32 32 20 8 48 25 62 37 32 26 38 27 15 1z m1112 -12 c-3 -7 -5 -2 -5 12 0 14
2 19 5 13 2 -7 2 -19 0 -25z m1730 -30 c-2 -13 -4 -3 -4 22 0 25 2 35 4 23 2
-13 2 -33 0 -45z m90 30 c-3 -7 -5 -2 -5 12 0 14 2 19 5 13 2 -7 2 -19 0 -25z
m-6460 -55 c-2 -16 -4 -5 -4 22 0 28 2 40 4 28 2 -13 2 -35 0 -50z m325 -38
c2 -33 1 -73 -3 -90 -4 -20 -7 -3 -8 53 0 47 -5 81 -10 78 -5 -4 -7 3 -4 15 9
33 20 8 25 -56z m1524 40 c-4 -14 -2 -25 4 -25 5 0 10 7 10 15 0 8 4 15 9 15
5 0 7 -9 4 -20 -3 -11 -9 -20 -15 -20 -5 0 -3 -10 4 -22 7 -13 11 -27 10 -31
-1 -4 2 -17 8 -27 6 -12 7 -20 1 -20 -13 0 -52 125 -45 144 10 25 17 18 10 -9z
m4344 -52 c6 -25 5 -31 -6 -26 -10 4 -14 21 -13 57 1 28 4 40 6 26 2 -14 8
-39 13 -57z m-1537 25 c-10 -21 -10 -21 -9 9 1 19 5 28 10 23 6 -6 5 -18 -1
-32z m-2266 0 c-3 -7 -5 -2 -5 12 0 14 2 19 5 13 2 -7 2 -19 0 -25z m852 16
c2 -2 -7 -4 -20 -4 -19 0 -21 -2 -9 -10 12 -8 9 -10 -13 -10 -16 0 -26 4 -22
10 3 6 -1 10 -10 10 -9 0 -13 5 -10 10 6 9 72 4 84 -6z m48 10 c-3 -3 -12 -4
-19 -1 -8 3 -5 6 6 6 11 1 17 -2 13 -5z m87 -9 l31 5 -32 -11 c-35 -13 -68 -6
-58 12 5 7 10 8 18 0 5 -5 24 -8 41 -6z m2823 -7 c-3 -8 -6 -5 -6 6 -1 11 2
17 5 13 3 -3 4 -12 1 -19z m-1570 -10 c-3 -8 -6 -5 -6 6 -1 11 2 17 5 13 3 -3
4 -12 1 -19z m1793 1 c0 -6 -4 -7 -10 -4 -5 3 -10 11 -10 16 0 6 5 7 10 4 6
-3 10 -11 10 -16z m-3283 5 c-3 -3 -12 -4 -19 -1 -8 3 -5 6 6 6 11 1 17 -2 13
-5z m-707 -66 c-1 -26 -3 -30 -10 -16 -6 9 -7 23 -4 32 9 25 14 19 14 -16z
m2194 -21 c-9 -26 -17 -47 -19 -47 -1 0 -2 19 -2 43 0 30 2 37 8 22 7 -20 8
-20 8 1 1 11 4 24 8 27 13 14 12 -1 -3 -46z m-2226 7 c-3 -14 -5 -12 -10 9 -3
19 -2 25 4 19 6 -6 8 -18 6 -28z m-2380 -10 c4 2 7 -19 8 -47 1 -84 15 -186
28 -213 7 -13 11 -36 8 -52 -6 -27 -6 -27 -14 8 -16 71 -51 335 -42 312 3 -6
9 -10 12 -8z m6162 6 c0 -5 -4 -10 -10 -10 -5 0 -10 5 -10 10 0 6 5 10 10 10
6 0 10 -4 10 -10z m-2146 -43 c-5 -13 -64 -40 -64 -29 0 5 50 36 67 41 1 1 0
-5 -3 -12z m2130 -34 c-5 -57 -14 -70 -14 -20 0 33 8 67 15 67 2 0 2 -21 -1
-47z m293 15 c-3 -7 -5 -2 -5 12 0 14 2 19 5 13 2 -7 2 -19 0 -25z m-4557 -4
c0 -8 5 -14 10 -14 6 0 10 -7 10 -15 0 -9 9 -34 20 -55 11 -22 18 -40 15 -40
-5 0 -51 87 -65 126 -7 17 -7 23 0 19 6 -3 10 -13 10 -21z m-1557 -54 c4 -42
3 -58 -3 -45 -8 19 -14 123 -6 114 2 -2 6 -33 9 -69z m4195 39 c-3 -8 -7 -3
-11 10 -4 17 -3 21 5 13 5 -5 8 -16 6 -23z m1949 9 c-3 -8 -6 -5 -6 6 -1 11 2
17 5 13 3 -3 4 -12 1 -19z m-1901 -20 c-9 -12 -16 -20 -16 -16 0 3 -3 15 -6
25 -5 15 -4 15 5 3 8 -12 11 -12 17 3 3 10 9 16 11 13 3 -3 -2 -15 -11 -28z
m-2006 -21 c0 -9 -56 19 -64 32 -3 4 10 1 29 -8 19 -9 34 -19 35 -24z m1388
24 c17 -10 -8 -23 -50 -26 -14 -2 -40 -12 -57 -24 -16 -12 -44 -27 -62 -33
-23 -8 -28 -13 -17 -20 10 -8 10 -9 -3 -5 -9 3 -38 -8 -65 -24 -27 -16 -58
-29 -69 -30 l-20 0 20 -9 c17 -7 15 -8 -10 -7 -16 1 -41 -2 -55 -6 -14 -4 -9
0 10 9 112 53 242 119 290 149 60 36 68 39 88 26z m2492 -154 c-12 -73 -24
-134 -26 -136 -6 -7 -4 19 7 89 5 36 11 91 12 122 0 32 5 52 9 45 5 -8 8 -3 9
13 0 14 3 19 6 12 3 -7 -5 -73 -17 -145z m-6163 101 c-3 -7 -5 -2 -5 12 0 14
2 19 5 13 2 -7 2 -19 0 -25z m5897 16 c3 -8 2 -12 -4 -9 -6 3 -10 10 -10 16 0
14 7 11 14 -7z m-5877 -41 c-3 -10 -5 -2 -5 17 0 19 2 27 5 18 2 -10 2 -26 0
-35z m2401 -18 c1 -2 -6 -5 -18 -8 -11 -3 -18 -1 -15 3 3 4 -15 20 -40 34 -25
15 -45 29 -45 32 0 4 98 -47 118 -61z m1832 21 c-29 -49 -35 -45 -10 5 12 23
24 38 27 35 3 -2 -5 -21 -17 -40z m1597 -8 c-3 -8 -6 -5 -6 6 -1 11 2 17 5 13
3 -3 4 -12 1 -19z m-5840 -40 c-3 -8 -6 -5 -6 6 -1 11 2 17 5 13 3 -3 4 -12 1
-19z m2450 6 c-3 -3 -12 -4 -19 -1 -8 3 -5 6 6 6 11 1 17 -2 13 -5z m-770 -27
c1 -11 1 -18 0 -16 -2 2 -8 11 -15 20 -9 12 -9 16 1 16 7 0 14 -9 14 -20z m73
19 c0 -3 -4 -8 -10 -11 -5 -3 -10 -1 -10 4 0 6 5 11 10 11 6 0 10 -2 10 -4z
m2421 -68 c-27 -40 -66 -91 -86 -113 l-37 -40 28 40 c15 22 33 45 38 50 6 6
24 30 41 55 31 49 56 80 62 80 2 0 -19 -33 -46 -72z m-1652 43 c28 -15 31 -19
16 -25 -10 -3 -20 -4 -23 -1 -3 3 1 5 9 5 8 1 -4 9 -26 20 -22 11 -33 19 -25
19 8 0 30 -8 49 -18z m3300 -40 c-7 -28 -15 -49 -17 -46 -2 2 1 27 8 55 7 28
14 49 17 46 3 -3 -1 -28 -8 -55z m-5751 -31 c0 -22 -1 -22 -8 5 -4 17 -8 39
-8 50 0 16 2 15 8 -5 4 -14 8 -36 8 -50z m1090 32 c-16 -2 -28 -8 -28 -13 0
-5 -12 -14 -26 -19 -14 -6 -22 -15 -18 -21 4 -8 0 -8 -15 0 -14 8 -21 8 -21 1
0 -5 -3 -9 -7 -9 -21 3 -33 -2 -33 -16 0 -8 -8 -15 -19 -15 -10 0 -24 -7 -31
-15 -7 -8 -21 -15 -32 -15 -13 0 -17 -4 -11 -12 15 -26 12 -38 -7 -28 -25 13
-33 13 -24 -2 4 -7 3 -8 -5 -4 -6 4 -21 4 -32 1 -17 -6 -19 -9 -8 -17 11 -8
10 -9 -3 -4 -20 6 -71 -17 -61 -28 4 -4 0 -4 -10 0 -17 6 -14 24 4 24 6 0 26
11 46 24 19 14 42 22 51 19 9 -4 13 -2 9 4 -6 9 21 27 48 32 6 1 20 11 32 23
12 12 27 17 34 13 7 -5 10 -4 6 2 -10 16 160 96 178 84 6 -3 -2 -7 -17 -9z
m554 -7 c3 -13 1 -22 -3 -19 -9 5 -13 44 -5 44 2 0 6 -11 8 -25z m873 15 c3
-6 -1 -7 -9 -4 -18 7 -21 14 -7 14 6 0 13 -4 16 -10z m2060 -2 c-16 -6 -36
-15 -43 -21 -7 -5 -15 -7 -18 -4 -8 8 47 36 71 36 14 0 11 -4 -10 -11z m-2000
-18 c13 -6 15 -9 5 -9 -8 0 -22 4 -30 9 -18 12 -2 12 25 0z m579 -5 c-22 -17
-34 -19 -34 -6 0 5 8 12 18 14 32 9 36 7 16 -8z m1540 -1 c24 -23 19 -27 -9
-8 -14 9 -25 18 -25 20 0 10 20 3 34 -12z m-4987 -16 c-3 -8 -6 -5 -6 6 -1 11
2 17 5 13 3 -3 4 -12 1 -19z m2009 -21 c1 -18 -1 -26 -3 -19 -8 22 -25 13 -18
-10 5 -21 5 -21 -5 -5 -9 15 -8 22 5 37 10 11 14 24 9 32 -4 7 -3 10 2 5 5 -5
9 -23 10 -40z m-496 18 c5 3 14 -11 19 -32 14 -48 13 -64 0 -83 -9 -12 -10
-11 -6 8 3 12 1 20 -4 16 -5 -3 -9 -1 -9 5 0 5 -3 18 -6 28 -5 14 -4 15 4 4 8
-11 10 -8 9 12 -1 15 -6 22 -12 17 -6 -5 -10 2 -11 18 -1 15 1 21 3 14 3 -6 9
-10 13 -7z m470 9 c0 -3 -7 -12 -15 -20 -16 -17 -18 -14 -9 10 6 15 24 23 24
10z m1401 -3 c-7 -5 -9 -11 -5 -13 5 -3 3 -3 -5 -1 -22 5 -111 -9 -106 -17 5
-8 -124 -5 -131 3 -3 2 35 8 83 11 48 4 104 11 123 16 48 11 57 11 41 1z
m-395 -11 c15 -6 25 -13 22 -15 -3 -3 -20 1 -39 9 -38 17 -25 21 17 6z m100
-20 c-17 -6 -36 -5 -45 0 -11 7 -3 9 29 9 42 -1 43 -1 16 -9z m1958 -2 c-5 -8
-2 -9 10 -5 11 4 15 3 11 -4 -4 -6 -14 -8 -22 -5 -8 3 -23 1 -34 -4 -10 -6
-19 -8 -19 -6 0 5 49 34 58 36 2 0 0 -5 -4 -12z m1263 -20 c-3 -7 -5 -2 -5 12
0 14 2 19 5 13 2 -7 2 -19 0 -25z m-5002 4 c-3 -3 -11 0 -18 7 -9 10 -8 11 6
5 10 -3 15 -9 12 -12z m-1328 -14 c-3 -8 -6 -5 -6 6 -1 11 2 17 5 13 3 -3 4
-12 1 -19z m280 6 c-3 -3 -12 -4 -19 -1 -8 3 -5 6 6 6 11 1 17 -2 13 -5z
m1769 -13 c0 -11 -4 -17 -9 -14 -5 3 -7 0 -5 -8 3 -8 11 -13 17 -11 6 1 11 -2
11 -8 0 -15 -16 -12 -29 4 -9 11 -10 20 -1 35 13 26 16 26 16 2z m3095 2 c13
-16 12 -17 -3 -4 -10 7 -18 15 -18 17 0 8 8 3 21 -13z m-4811 -3 c0 -5 -2 -10
-4 -10 -3 0 -8 5 -11 10 -3 6 -1 10 4 10 6 0 11 -4 11 -10z m4464 -25 c5 -22
4 -26 -4 -15 -5 8 -10 24 -10 34 0 26 6 18 14 -19z m-4787 -17 c-3 -7 -5 -2
-5 12 0 14 2 19 5 13 2 -7 2 -19 0 -25z m1526 -21 c5 -13 -4 -25 -39 -47 -26
-16 -53 -26 -62 -23 -11 5 -13 3 -7 -7 5 -9 4 -11 -3 -6 -7 4 -12 3 -12 -2 0
-5 -21 -20 -47 -33 -27 -13 -61 -33 -77 -43 -26 -18 -29 -18 -23 -3 3 9 3 17
-1 17 -4 0 -9 10 -9 22 -2 15 1 18 6 10 4 -7 15 -10 27 -6 18 6 18 6 -1 -9
-11 -9 -15 -16 -10 -16 16 0 60 27 59 36 0 4 9 7 20 5 18 -2 19 -1 6 8 -13 10
-13 11 2 7 9 -3 28 3 42 14 14 11 30 17 36 14 5 -3 10 -2 10 4 0 5 -8 14 -17
20 -14 7 -10 9 19 7 43 -4 64 6 53 24 -5 9 -4 11 3 6 7 -4 12 -1 12 8 0 19
-17 30 -22 14 -3 -7 -7 -5 -11 6 -4 10 -3 15 3 11 6 -3 10 0 10 7 0 14 23 -17
33 -45z m4792 -88 c-20 -73 -38 -135 -40 -138 -9 -8 -5 16 10 65 8 27 13 65
10 84 -4 28 -3 30 4 10 8 -24 8 -24 15 10 16 78 27 113 33 106 3 -2 -12 -64
-32 -137z m-6292 101 c3 -11 1 -18 -3 -15 -5 3 -7 -12 -4 -32 4 -36 4 -37 -6
-8 -8 24 -5 75 5 75 1 0 5 -9 8 -20z m299 -12 c-6 -6 -12 -4 -16 7 -3 9 -2 13
4 10 6 -3 10 0 11 7 0 10 2 10 6 0 3 -8 1 -18 -5 -24z m4907 6 c14 -12 -19 -1
-35 12 -18 14 -18 14 6 3 14 -6 27 -13 29 -15z m792 -11 c7 -10 9 -14 4 -10
-5 4 -15 -3 -23 -15 -9 -15 -11 -17 -8 -5 3 10 6 25 6 33 0 18 5 18 21 -3z
m289 -18 c0 -5 -5 -3 -10 5 -5 8 -10 20 -10 25 0 6 5 3 10 -5 5 -8 10 -19 10
-25z m-4210 3 c8 -13 14 -25 13 -28 -1 -7 40 -45 52 -48 6 -1 10 -6 10 -12 0
-5 3 -9 6 -7 10 3 49 -35 60 -58 9 -17 8 -17 -10 3 -10 12 -23 22 -28 22 -4 0
-41 30 -81 67 -52 47 -69 69 -60 74 19 12 22 11 38 -13z m2148 -13 c-21 -24
-35 -32 -42 -25 -7 7 -6 14 3 23 10 10 11 8 6 -8 -6 -18 -4 -17 14 4 12 12 18
27 15 32 -3 5 4 9 16 9 19 0 18 -3 -12 -35z m570 24 c-2 -6 3 -14 11 -17 9 -3
11 0 6 7 -5 9 -1 9 14 0 15 -10 17 -16 8 -22 -8 -6 -5 -7 8 -4 15 3 21 -1 21
-14 0 -19 -5 -18 -54 18 -18 13 -30 29 -27 34 8 13 16 11 13 -2z m-4476 -67
c-5 -13 -8 -10 -12 13 -8 41 1 68 11 31 4 -15 5 -35 1 -44z m1018 61 c0 -5 -5
-15 -10 -23 -8 -12 -10 -11 -10 8 0 12 5 22 10 22 6 0 10 -3 10 -7z m3992 -38
c16 -11 15 -13 -10 -24 -25 -10 -26 -10 -8 4 19 14 18 16 -22 32 -23 9 -42 20
-42 24 0 8 50 -14 82 -36z m-4362 -10 c0 -2 -9 -3 -19 -2 -11 0 -18 5 -15 9 4
6 34 0 34 -7z m3925 -4 c3 -5 2 -12 -3 -15 -5 -3 -9 1 -9 9 0 17 3 19 12 6z
m-4875 -46 c0 -30 16 -72 34 -90 8 -8 11 -25 8 -42 -5 -24 -8 -20 -28 38 -30
92 -39 133 -25 125 6 -4 11 -18 11 -31z m317 13 c-3 -8 -6 -5 -6 6 -1 11 2 17
5 13 3 -3 4 -12 1 -19z m3840 16 c-3 -3 -12 -4 -19 -1 -8 3 -5 6 6 6 11 1 17
-2 13 -5z m-2897 -14 c-8 -5 -19 -10 -25 -10 -5 0 -3 5 5 10 8 5 20 10 25 10
6 0 3 -5 -5 -10z m3650 0 c0 -5 -7 -7 -15 -4 -8 4 -15 8 -15 10 0 2 7 4 15 4
8 0 15 -4 15 -10z m95 0 c13 -6 15 -9 5 -9 -8 0 -22 4 -30 9 -18 12 -2 12 25
0z m-4135 -20 c-6 -11 -13 -20 -16 -20 -2 0 0 9 6 20 6 11 13 20 16 20 2 0 0
-9 -6 -20z m3250 -5 c-27 -29 -42 -31 -60 -10 -10 12 -10 15 4 15 9 0 16 -5
16 -11 0 -6 12 -1 28 10 36 27 40 26 12 -4z m835 19 c12 -5 13 -9 5 -14 -7 -4
7 -13 33 -21 25 -7 43 -17 41 -21 -3 -4 13 -8 35 -8 23 0 41 -5 41 -11 0 -6
-7 -9 -15 -5 -8 3 -15 1 -15 -3 0 -13 28 -22 35 -11 4 6 12 10 18 9 9 0 9 -2
0 -6 -7 -2 -13 -9 -13 -14 0 -4 7 -6 16 -2 11 4 22 -1 31 -13 12 -16 15 -17
23 -4 9 14 13 6 9 -17 -1 -5 16 -13 37 -19 33 -9 35 -11 16 -16 -12 -4 -22 -2
-22 3 0 5 -8 9 -18 9 -10 0 -22 4 -27 9 -10 9 -130 74 -218 118 -26 13 -45 28
-42 34 7 11 8 11 30 3z m444 -58 c0 -14 -2 -16 -6 -6 -3 8 -12 29 -20 45 l-14
30 21 -24 c11 -13 20 -33 19 -45z m-367 32 c-9 -9 -15 -9 -24 1 -11 10 -10 11
5 6 10 -5 17 -2 17 6 0 7 3 9 7 6 4 -4 1 -13 -5 -19z m-4693 -19 c7 -22 8 -36
0 -48 -8 -14 -9 -13 -5 4 3 11 -1 32 -9 48 -7 15 -10 27 -5 27 4 0 13 -14 19
-31z m1895 -4 c-4 -8 -10 -15 -15 -15 -4 0 -6 7 -3 15 4 8 10 15 15 15 4 0 6
-7 3 -15z m3046 -5 c0 -5 -8 -10 -17 -10 -15 0 -16 2 -3 10 19 12 20 12 20 0z
m-1260 -11 c0 -6 9 -8 21 -4 19 6 20 5 8 -8 -8 -8 -20 -12 -28 -9 -9 3 -12 1
-7 -6 3 -6 2 -13 -4 -17 -5 -3 -10 -1 -10 5 0 7 -7 10 -15 6 -8 -3 -15 -1 -15
4 0 6 9 10 20 10 13 0 18 5 14 15 -4 8 -1 15 5 15 6 0 11 -5 11 -11z m1342
-16 c-3 -16 -7 -22 -10 -15 -4 13 4 42 11 42 2 0 2 -12 -1 -27z m-5242 1 c0
-8 -4 -12 -10 -9 -5 3 -10 10 -10 16 0 5 5 9 10 9 6 0 10 -7 10 -16z m1030 12
c0 -2 -7 -7 -16 -10 -8 -3 -12 -2 -9 4 6 10 25 14 25 6z m-261 -46 c-18 -12
20 -42 45 -35 21 6 21 6 1 -11 -18 -15 -18 -16 -2 -10 10 3 28 -1 40 -9 20
-14 19 -14 -17 -10 -53 7 -99 41 -90 67 4 14 2 18 -5 14 -13 -8 -14 -4 -5 19
6 14 8 14 25 -1 13 -12 16 -20 8 -24z m283 18 c-5 -5 -16 -10 -24 -11 -7 -2
-27 -12 -43 -23 -61 -43 -92 -55 -119 -44 -14 5 -27 15 -27 22 -5 36 -3 54 5
59 8 7 67 -11 76 -23 8 -10 33 -11 58 -3 18 6 21 10 10 17 -10 8 -9 9 4 5 9
-3 24 0 34 8 20 14 42 9 26 -7z m4739 -1 c-10 -9 -11 -8 -5 6 3 10 9 15 12 12
3 -3 0 -11 -7 -18z m-517 -11 c-3 -9 -10 -16 -15 -16 -5 0 -9 -6 -9 -14 0 -19
-43 -45 -83 -51 -21 -4 -26 -3 -14 3 28 12 21 26 -15 32 -42 6 -42 28 -1 45
32 14 33 13 39 -13 11 -54 12 -54 36 -38 13 9 32 29 43 45 21 32 30 35 19 7z
m820 10 c-3 -8 0 -25 6 -38 11 -22 10 -22 -4 -4 -17 21 -20 38 -9 49 10 11 13
8 7 -7z m-5857 -18 c-3 -8 -6 -5 -6 6 -1 11 2 17 5 13 3 -3 4 -12 1 -19z m718
12 c3 -5 2 -10 -4 -10 -5 0 -13 5 -16 10 -3 6 -2 10 4 10 5 0 13 -4 16 -10z
m1199 -15 c11 -8 18 -17 15 -19 -2 -2 -15 4 -28 15 -27 22 -15 26 13 4z m3626
-10 c0 -8 -4 -15 -10 -15 -5 0 -7 7 -4 15 4 8 8 15 10 15 2 0 4 -7 4 -15z
m-5567 -20 c-3 -9 -8 -14 -10 -11 -3 3 -2 9 2 15 9 16 15 13 8 -4z m30 0 c-3
-9 -8 -14 -10 -11 -3 3 -2 9 2 15 9 16 15 13 8 -4z m2027 5 c0 -5 -5 -10 -11
-10 -5 0 -7 5 -4 10 3 6 8 10 11 10 2 0 4 -4 4 -10z m1566 1 c-9 -14 -93 -61
-108 -61 -7 1 -3 6 9 13 12 7 23 17 25 22 2 6 11 9 21 8 10 -2 15 1 12 7 -4 6
1 7 11 3 12 -4 15 -3 10 5 -4 7 -1 12 9 12 9 0 14 -4 11 -9z m-3567 -51 c6
-19 7 -30 2 -25 -5 6 -13 24 -17 40 -9 39 0 30 15 -15z m1981 25 c33 -17 35
-21 18 -31 -7 -5 -8 -3 -3 6 6 10 4 12 -9 7 -11 -5 -15 -3 -10 5 5 8 2 9 -10
5 -9 -4 -14 -3 -11 2 3 5 -3 12 -12 14 -10 3 -12 5 -5 6 7 0 26 -6 42 -14z
m3517 -7 c-3 -8 -6 -5 -6 6 -1 11 2 17 5 13 3 -3 4 -12 1 -19z m-2032 2 c3 -5
-1 -10 -10 -10 -9 0 -13 5 -10 10 3 6 8 10 10 10 2 0 7 -4 10 -10z m2351 -31
c-9 -19 -15 -29 -16 -22 0 18 20 66 25 61 3 -3 -1 -20 -9 -39z m-6145 -6 c-12
-20 -14 -14 -5 12 4 9 9 14 11 11 3 -2 0 -13 -6 -23z m2459 -3 c8 -5 11 -10 5
-10 -5 0 -17 5 -25 10 -8 5 -10 10 -5 10 6 0 17 -5 25 -10z m-70 -10 c0 -6 20
-15 44 -22 25 -6 43 -15 41 -19 -3 -3 6 -6 19 -6 24 0 80 -32 72 -41 -3 -2
-18 3 -33 13 -15 10 -34 18 -42 19 -24 2 -121 48 -121 58 0 4 5 8 10 8 6 0 10
-5 10 -10z m3680 -11 c0 -5 -4 -9 -10 -9 -5 0 -10 7 -10 16 0 8 5 12 10 9 6
-3 10 -10 10 -16z m-2333 -5 c-16 -9 -31 -13 -34 -10 -3 3 5 10 18 15 37 15
47 12 16 -5z m-3697 -74 c0 -10 5 -22 10 -25 6 -3 10 -14 9 -23 -1 -17 -41 63
-53 108 -6 21 -4 20 13 -8 12 -18 21 -41 21 -52z m327 -18 c-6 -12 -12 -20
-14 -18 -3 2 0 13 6 24 5 10 6 23 2 28 -5 5 -11 23 -14 39 -5 26 -4 24 12 -10
14 -30 16 -45 8 -63z m3238 78 c-3 -5 -13 -10 -21 -10 -8 0 -12 5 -9 10 3 6
13 10 21 10 8 0 12 -4 9 -10z m78 -9 c-20 -17 -63 -30 -68 -20 -4 5 -3 8 2 7
14 -4 53 13 53 23 0 6 5 7 11 3 6 -3 7 -9 2 -13z m-93 -35 c-8 -8 -28 -17 -45
-21 l-30 -6 35 19 c42 24 59 27 40 8z m-3520 -10 c0 -3 -4 -8 -10 -11 -5 -3
-10 -1 -10 4 0 6 5 11 10 11 6 0 10 -2 10 -4z m3395 -5 c3 -5 2 -12 -3 -15 -5
-3 -9 1 -9 9 0 17 3 19 12 6z m2297 -23 c-3 -13 -8 -25 -12 -28 -4 -3 -10 -18
-14 -35 -4 -16 -4 -27 -1 -23 13 12 36 -21 42 -59 5 -30 8 -34 14 -18 5 15 8
8 8 -22 1 -23 -3 -45 -9 -48 -5 -3 -10 -35 -10 -71 0 -50 -3 -64 -15 -64 -8 0
-15 -7 -15 -15 0 -9 -7 -18 -15 -21 -8 -4 -15 -15 -15 -25 0 -10 -5 -19 -11
-19 -5 0 -7 5 -4 10 3 6 1 10 -5 10 -13 0 -29 -41 -37 -97 -3 -24 -10 -43 -14
-43 -5 0 -9 -6 -9 -14 0 -8 -9 -17 -19 -21 -35 -11 -81 -61 -81 -88 0 -14 -4
-29 -10 -32 -5 -3 -10 -15 -10 -26 0 -10 -4 -19 -10 -19 -5 0 -10 5 -10 11 0
5 -5 7 -12 3 -9 -6 -9 -9 0 -12 7 -2 12 -10 12 -18 0 -10 -7 -13 -25 -8 -19 5
-31 1 -45 -16 -24 -28 -25 -40 -3 -40 14 0 14 -2 -2 -20 -10 -11 -28 -20 -39
-20 -44 0 -68 -12 -63 -31 7 -27 -25 -50 -69 -49 -22 0 -51 -1 -66 -4 -16 -2
-28 0 -28 6 0 6 -6 5 -15 -2 -21 -17 -20 6 1 48 18 37 29 40 37 12 7 -28 37
-26 36 3 0 13 -3 16 -6 8 -4 -11 -10 -9 -22 8 -17 22 -17 22 -39 3 -12 -10
-19 -21 -16 -25 3 -3 0 -8 -7 -13 -8 -4 -10 -3 -5 4 4 7 3 12 -2 12 -17 0 -22
-13 -10 -27 8 -11 8 -17 -2 -26 -10 -10 -12 -9 -7 6 4 9 4 17 1 17 -12 0 -94
-64 -94 -73 0 -6 -3 -8 -6 -5 -8 8 178 188 188 182 4 -3 5 1 2 9 -3 8 3 21 13
28 48 37 249 291 310 394 17 28 54 88 83 135 29 47 73 126 97 175 55 110 78
142 65 93z m-5311 -136 c6 -15 5 -21 -1 -17 -6 3 -10 12 -10 19 0 8 -8 13 -17
12 -14 -1 -17 6 -15 31 2 17 -1 34 -7 38 -6 3 -11 15 -11 26 0 11 -4 17 -10
14 -6 -4 -7 1 -3 11 5 13 14 0 36 -47 16 -35 33 -74 38 -87z m3056 142 c-3 -3
-12 -4 -19 -1 -8 3 -5 6 6 6 11 1 17 -2 13 -5z m2585 -16 c-7 -7 -12 -8 -12
-2 0 14 12 26 19 19 2 -3 -1 -11 -7 -17z m-2742 8 c0 -2 -7 -7 -16 -10 -8 -3
-12 -2 -9 4 6 10 25 14 25 6z m65 -16 c3 -6 -4 -9 -19 -8 -13 1 -22 6 -20 10
7 11 32 10 39 -2z m-3072 -28 c-18 -5 -27 3 -18 17 4 7 10 7 20 -2 11 -10 11
-13 -2 -15z m2444 12 c-3 -3 -12 -4 -19 -1 -8 3 -5 6 6 6 11 1 17 -2 13 -5z
m570 0 c-3 -3 -12 -4 -19 -1 -8 3 -5 6 6 6 11 1 17 -2 13 -5z m2674 -17 c-10
-9 -11 -8 -5 6 3 10 9 15 12 12 3 -3 0 -11 -7 -18z m-5955 -2 c-3 -8 -1 -15 5
-15 6 0 8 -3 6 -7 -2 -5 4 -26 14 -48 12 -27 18 -34 18 -20 1 17 3 17 11 5 13
-20 13 -33 0 -25 -5 3 -10 1 -10 -4 0 -6 6 -11 14 -11 8 0 14 -6 13 -12 -1
-40 4 -50 21 -43 14 5 15 4 5 -6 -16 -16 -17 -33 -1 -23 7 5 9 2 6 -7 -3 -8 0
-23 8 -34 8 -10 14 -24 14 -29 0 -19 -35 45 -88 162 -46 100 -55 132 -35 132
3 0 3 -7 -1 -15z m3233 -152 c-1 -93 -4 -154 -8 -138 -6 32 -2 305 5 305 2 0
4 -75 3 -167z m2516 125 c5 -22 2 -35 -10 -47 -17 -15 -17 -15 -12 1 3 10 0
24 -8 32 -8 8 -15 20 -15 26 0 6 -4 8 -10 5 -5 -3 -10 -2 -10 4 0 11 29 19 47
13 6 -2 15 -17 18 -34z m242 10 c-3 -8 -6 -5 -6 6 -1 11 2 17 5 13 3 -3 4 -12
1 -19z m-16 -44 c-7 -11 -10 -13 -8 -4 2 8 0 24 -6 35 -9 19 -8 19 8 4 14 -14
15 -21 6 -35z m-4118 11 c37 -17 77 -71 77 -103 0 -26 -20 -72 -32 -72 -4 0
-8 -6 -8 -12 0 -7 -14 -28 -30 -47 -17 -18 -30 -36 -30 -40 0 -3 -16 -23 -35
-43 -19 -20 -35 -40 -35 -44 0 -10 -94 -124 -103 -124 -5 0 -6 -4 -3 -9 3 -5
-21 -36 -53 -70 -57 -59 -61 -61 -109 -61 -45 0 -55 4 -85 35 -19 20 -37 48
-40 63 -5 29 11 78 34 103 8 8 23 30 33 49 11 19 47 69 80 111 34 42 84 106
111 142 28 36 53 63 58 60 4 -2 7 1 7 8 0 7 3 10 6 7 3 -4 0 -17 -7 -30 -20
-35 -21 -58 -4 -52 8 4 13 9 11 13 -8 13 9 30 37 35 14 2 29 1 32 -4 4 -6 13
-5 23 1 12 8 27 6 55 -5 20 -9 37 -18 37 -19 0 -2 -12 -3 -27 -2 -26 0 -28 -3
-28 -43 0 -23 -3 -42 -7 -42 -5 0 -8 -7 -8 -16 0 -8 -5 -12 -11 -9 -7 5 -9 -4
-7 -26 2 -18 10 -35 18 -37 8 -3 12 -1 8 3 -4 4 0 14 8 23 9 8 13 24 11 34 -4
14 -2 16 6 10 18 -15 39 11 24 28 -9 10 -9 11 1 6 14 -8 17 10 2 19 -5 3 -10
11 -10 17 0 6 9 3 20 -7 20 -18 25 -13 21 22 -1 7 3 22 9 32 8 15 6 24 -8 37
-16 16 -17 16 -20 1 -2 -9 -8 -17 -13 -17 -6 0 -8 4 -4 9 3 5 0 21 -6 35 -12
27 -33 34 -44 16 -4 -7 -12 -7 -25 0 -24 13 -52 14 -31 1 9 -6 5 -8 -13 -8
-34 0 -33 13 2 25 39 15 70 14 105 -3z m2368 -6 c22 -19 22 -19 2 -7 -23 15
-84 15 -106 1 -15 -9 -41 -14 -33 -6 35 35 104 41 137 12z m-1484 -251 c-1
-46 -3 -11 -3 77 0 88 2 125 3 83 2 -42 2 -114 0 -160z m1553 190 c10 -13 37
-48 60 -78 l43 -55 -49 50 c-26 28 -51 50 -55 50 -4 0 -11 4 -16 9 -5 5 -2 6
6 1 9 -5 12 -3 9 6 -3 8 -11 13 -17 12 -6 -2 -11 4 -11 12 0 21 9 19 30 -7z
m1632 -43 c-21 -42 -31 -53 -35 -41 -4 10 -3 15 3 11 6 -3 10 2 10 11 0 17 41
86 48 80 1 -2 -10 -29 -26 -61z m-5512 10 c14 -19 14 -19 -2 -6 -10 7 -18 18
-18 24 0 6 1 8 3 6 1 -2 9 -13 17 -24z m2697 -11 c-9 -9 -28 6 -21 18 4 6 10
6 17 -1 6 -6 8 -13 4 -17z m980 -6 c-3 -8 -6 -5 -6 6 -1 11 2 17 5 13 3 -3 4
-12 1 -19z m-3648 -38 c11 -24 11 -24 -3 -6 -9 11 -16 24 -16 30 0 12 5 7 19
-24z m3629 -6 c-4 -3 -12 5 -18 18 -12 22 -12 22 6 6 10 -10 15 -20 12 -24z
m235 22 c6 -14 -1 -26 -14 -26 -4 0 -7 9 -6 20 1 23 12 26 20 6z m-1188 -36
c3 -5 -1 -10 -10 -10 -9 0 -13 5 -10 10 3 6 8 10 10 10 2 0 7 -4 10 -10z m978
-7 c-10 -4 -10 -7 0 -18 25 -29 35 -42 47 -65 l13 -23 11 28 c12 28 12 27 12
-18 -1 -25 -4 -43 -7 -39 -25 29 -99 132 -99 136 0 3 8 6 18 5 10 0 12 -3 5
-6z m-3608 -53 c16 -25 22 -39 13 -33 -8 7 -19 9 -23 5 -5 -4 -5 -1 -1 5 4 7
0 23 -8 35 -9 12 -16 27 -16 32 0 12 2 10 35 -44z m5374 1 c-12 -23 -26 -41
-31 -41 -8 0 10 39 23 50 3 3 9 14 12 24 4 10 10 16 13 13 3 -3 -4 -24 -17
-46z m-1724 19 c3 -5 1 -10 -4 -10 -6 0 -11 5 -11 10 0 6 2 10 4 10 3 0 8 -4
11 -10z m1662 -12 c-3 -8 -6 -5 -6 6 -1 11 2 17 5 13 3 -3 4 -12 1 -19z
m-1358 -32 c9 -11 9 -16 -1 -22 -7 -4 -10 -4 -6 1 4 4 3 14 -3 22 -6 7 -9 13
-6 13 2 0 10 -6 16 -14z m-4267 -30 c7 -12 6 -22 -2 -29 -8 -9 -9 -7 -4 7 5
13 4 17 -4 12 -8 -5 -10 -1 -5 10 4 11 3 15 -5 10 -6 -3 -13 -2 -16 3 -4 5 1
8 10 7 9 -1 21 -10 26 -20z m3068 -11 c0 -8 -4 -15 -10 -15 -5 0 -7 7 -4 15 4
8 8 15 10 15 2 0 4 -7 4 -15z m1231 -2 c13 -16 12 -17 -3 -4 -10 7 -18 15 -18
17 0 8 8 3 21 -13z m-3937 -11 c3 -5 -1 -9 -9 -9 -8 0 -12 4 -9 9 3 4 7 8 9 8
2 0 6 -4 9 -8z m3967 -29 c12 -16 12 -17 -2 -6 -9 7 -20 9 -24 5 -5 -4 -5 -1
-1 6 9 16 11 15 27 -5z m-2186 -23 c-10 -11 -20 -18 -23 -15 -3 3 3 14 13 25
10 11 20 18 23 15 3 -3 -3 -14 -13 -25z m248 23 c-13 -2 -33 -2 -45 0 -13 2
-3 4 22 4 25 0 35 -2 23 -4z m1090 -13 c15 -18 17 -45 17 -204 0 -151 -3 -186
-15 -196 -8 -7 -15 -18 -15 -24 0 -6 4 -4 10 4 5 8 13 11 17 6 4 -4 -2 -16
-15 -26 -21 -17 -42 -19 -220 -18 l-197 2 -5 -147 c-3 -80 -8 -148 -11 -151
-6 -7 2 297 8 304 6 6 28 7 232 9 l170 1 -4 33 c-2 17 -1 27 2 20 2 -7 11 -9
19 -6 11 4 14 35 14 164 0 156 -2 164 -31 161 -4 -1 -4 8 -1 20 5 20 6 21 12
3 6 -17 7 -17 13 -1 4 10 1 24 -8 32 -12 12 -15 12 -15 2 0 -11 -2 -10 -9 0
-6 10 -27 13 -79 10 -39 -3 -75 -1 -79 3 -4 4 -37 10 -73 12 -36 2 5 4 90 5
145 2 157 1 173 -18z m-3451 -9 c-5 -14 -4 -14 14 -1 17 14 18 14 6 -2 -8 -9
-11 -22 -7 -28 3 -5 4 -10 1 -10 -3 0 -12 13 -20 28 -12 23 -12 29 -1 29 8 0
11 -7 7 -16z m408 -65 c0 -6 -8 1 -17 14 -9 14 -23 31 -30 38 -7 7 -13 18 -13
24 0 6 14 -6 30 -27 17 -21 30 -43 30 -49z m3626 62 c15 -19 16 -20 2 -9 -10
7 -18 9 -18 3 0 -12 25 -33 32 -26 3 2 8 -7 10 -21 3 -14 4 -24 3 -23 -18 18
-65 83 -65 89 0 16 16 10 36 -13z m1544 -7 c-5 -11 -15 -23 -21 -27 -6 -3 -3
5 6 20 20 30 30 35 15 7z m-1228 -35 c10 -20 9 -20 -8 -4 -16 15 -19 16 -29 2
-9 -13 -11 -11 -9 13 1 15 2 30 3 32 2 7 32 -23 43 -43z m-4297 -17 c-3 -13 2
-31 12 -41 9 -10 14 -21 11 -24 -3 -3 -16 9 -28 25 -12 17 -16 31 -10 31 6 0
8 5 5 10 -4 6 -11 7 -17 4 -7 -4 -8 -2 -4 5 4 6 12 8 18 5 6 -4 8 2 4 17 -6
19 -5 20 3 8 6 -9 8 -27 6 -40z m2069 -322 c30 6 39 -7 18 -27 -14 -13 -15
-12 -9 3 3 9 2 17 -2 17 -13 0 -22 -28 -11 -35 16 -10 282 -6 325 5 55 13 62
12 39 -6 -18 -15 -18 -15 0 -10 10 4 27 4 37 1 18 -6 19 -20 19 -194 0 -185 0
-188 23 -199 l22 -11 -22 0 c-13 -1 -23 -7 -23 -16 0 -9 6 -12 17 -8 10 4 14
2 10 -5 -4 -6 1 -13 10 -15 10 -3 3 -5 -14 -6 l-33 -1 0 219 0 218 -60 7 c-33
4 -120 4 -193 0 -126 -6 -133 -5 -159 16 l-28 21 2 182 2 182 3 -171 3 -171
24 4z m3390 305 c-4 -11 2 -8 16 8 15 18 19 20 11 5 -5 -11 -16 -28 -23 -38
-12 -16 -13 -14 -14 17 0 19 3 33 7 30 5 -2 6 -12 3 -22z m-2136 -11 c-3 -35
-14 -32 -20 4 -4 17 -1 25 9 25 9 0 13 -10 11 -29z m-3284 4 c3 -8 1 -15 -4
-15 -6 0 -10 7 -10 15 0 8 2 15 4 15 2 0 6 -7 10 -15z m4294 -7 c19 -36 6
-125 -15 -104 -4 3 -1 12 5 18 17 17 15 28 -3 22 -21 -8 -19 6 3 22 16 12 16
14 -5 34 -26 24 -28 30 -10 30 8 0 19 -10 25 -22z m-3956 -24 c-9 -16 -10 -14
-9 8 1 15 6 23 11 18 4 -4 4 -16 -2 -26z m3018 -6 c0 -10 -4 -18 -10 -18 -5 0
-10 15 -10 33 0 24 3 28 10 17 5 -8 10 -23 10 -32z m660 16 c0 -8 -19 -13 -24
-6 -3 5 1 9 9 9 8 0 15 -2 15 -3z m-3640 -29 c14 -18 13 -19 -1 -8 -9 7 -19
10 -23 6 -4 -4 -4 1 0 10 3 10 7 17 8 15 1 -2 8 -12 16 -23z m3788 10 c-2 -1
-13 -7 -25 -13 -18 -10 -20 -9 -16 7 3 13 11 17 24 14 11 -3 18 -7 17 -8z m92
11 c0 -2 -3 -11 -6 -20 -9 -23 -24 -20 -24 4 0 11 7 20 15 20 8 0 15 -2 15 -4z
m-214 -18 c4 -7 3 -8 -4 -4 -7 4 -12 3 -12 -3 0 -14 18 -23 25 -12 7 13 46 10
42 -3 -2 -5 -9 -12 -17 -14 -7 -3 -10 0 -6 7 4 6 2 11 -3 11 -22 0 -10 -31 21
-59 26 -23 37 -27 52 -19 13 7 16 7 12 -1 -5 -7 9 -11 43 -11 28 0 51 5 51 10
0 6 6 10 13 10 6 -1 2 -9 -11 -20 -14 -12 -33 -17 -53 -15 -16 2 -27 0 -25 -4
3 -4 -7 -6 -22 -3 -30 6 -132 104 -132 127 0 18 16 20 26 3z m1334 -28 c0 7 2
11 5 8 9 -9 -7 -38 -27 -49 -16 -9 -19 -8 -15 3 2 7 10 12 16 11 16 -4 14 7
-6 31 -18 21 -18 21 5 2 15 -13 22 -15 22 -6z m-5334 -39 c-8 -12 19 -33 29
-23 5 4 4 1 0 -7 -7 -12 -14 -8 -36 18 -15 19 -25 40 -22 48 4 11 9 9 20 -7 8
-11 12 -24 9 -29z m383 -5 c-2 -2 -13 8 -23 22 l-19 27 24 -22 c12 -12 21 -24
18 -27z m4860 30 c9 -11 6 -15 -14 -18 -19 -4 -25 -1 -25 13 0 22 23 25 39 5z
m-1055 -29 c2 -35 -16 -29 -20 7 -2 16 2 26 8 24 6 -2 12 -16 12 -31z m-3779
-17 c3 -5 1 -10 -4 -10 -6 0 -11 5 -11 10 0 6 2 10 4 10 3 0 8 -4 11 -10z
m2890 -78 c-7 -52 -8 -55 -19 -33 -8 19 -8 25 2 29 7 2 12 22 13 45 0 23 3 36
6 29 3 -7 2 -39 -2 -70z m1884 54 c-13 -28 -39 -24 -39 5 0 14 7 19 25 19 22
0 24 -2 14 -24z m46 -75 c-41 -54 -83 -105 -92 -112 -20 -16 15 32 64 89 18
20 33 42 33 48 0 9 58 74 66 74 2 0 -30 -44 -71 -99z m-4775 39 c6 -11 9 -20
7 -20 -2 0 -12 9 -22 20 -10 11 -13 20 -7 20 6 0 16 -9 22 -20z m-388 -8 c-4
-11 -1 -13 8 -7 8 5 11 4 7 -2 -4 -6 3 -24 15 -39 18 -24 19 -26 2 -12 -30 26
-56 75 -40 75 8 0 12 -7 8 -15z m439 -49 c13 -16 12 -17 -3 -4 -10 7 -18 15
-18 17 0 8 8 3 21 -13z m4643 2 c-4 -8 -10 -15 -15 -15 -4 0 -6 7 -3 15 4 8
10 15 15 15 4 0 6 -7 3 -15z m-3044 -15 c0 -5 -2 -10 -4 -10 -3 0 -8 5 -11 10
-3 6 -1 10 4 10 6 0 11 -4 11 -10z m-1965 -38 c-3 -3 -11 0 -18 7 -9 10 -8 11
6 5 10 -3 15 -9 12 -12z m2815 8 c-12 -8 -12 -10 -1 -10 8 0 12 -2 9 -5 -3 -3
-13 -2 -22 1 -14 5 -15 9 -4 15 7 5 18 9 23 9 6 0 3 -5 -5 -10z m-610 -15
c-14 -8 -36 -14 -50 -14 -21 1 -19 2 8 9 18 4 36 10 39 14 4 3 11 6 17 6 6 -1
0 -7 -14 -15z m828 0 c-10 -11 -48 -14 -48 -4 0 5 12 9 27 9 14 0 24 -2 21 -5z
m-2575 -33 c20 -21 23 -29 12 -29 -8 0 -13 3 -10 5 3 3 -5 16 -17 29 -12 13
-19 23 -17 23 3 0 17 -13 32 -28z m1645 21 c-10 -2 -26 -2 -35 0 -10 3 -2 5
17 5 19 0 27 -2 18 -5z m679 1 c-3 -3 -12 -4 -19 -1 -8 3 -5 6 6 6 11 1 17 -2
13 -5z m-2739 -29 c11 -13 23 -21 27 -17 5 4 5 1 1 -6 -6 -11 -15 -7 -37 14
-32 30 -34 34 -20 34 5 0 18 -11 29 -25z m4898 -63 l-29 -27 23 32 c13 18 26
30 29 28 3 -3 -8 -18 -23 -33z m-4844 3 c2 3 5 -2 5 -10 0 -19 0 -19 -23 7
-12 14 -13 18 -3 10 9 -6 18 -10 21 -7z m78 -9 c0 -3 -4 -8 -10 -11 -5 -3 -10
-1 -10 4 0 6 5 11 10 11 6 0 10 -2 10 -4z m385 -16 c3 -6 -1 -7 -9 -4 -18 7
-21 14 -7 14 6 0 13 -4 16 -10z m-418 -15 c-6 -14 8 -30 27 -30 5 0 10 -8 12
-19 2 -15 -3 -13 -27 10 -29 28 -38 54 -18 54 6 0 9 -7 6 -15z m4436 8 c3 -5
-5 -8 -18 -8 -13 0 -21 3 -18 8 2 4 10 7 18 7 8 0 16 -3 18 -7z m251 -93 c-48
-49 -90 -90 -92 -90 -6 0 20 33 37 46 14 11 8 34 -10 34 -6 0 -7 -5 -3 -12 5
-7 3 -8 -5 -3 -9 5 -10 10 -2 18 7 7 15 6 25 -2 12 -10 24 -2 70 43 31 31 58
56 62 56 3 0 -34 -40 -82 -90z m-166 68 c-6 -17 -38 -19 -38 -2 0 8 9 14 21
14 11 0 19 -5 17 -12z m-4057 -15 c13 -16 12 -17 -3 -4 -10 7 -18 15 -18 17 0
8 8 3 21 -13z m3790 -16 c-6 -8 -7 -18 -3 -22 4 -5 1 -5 -5 -1 -8 4 -13 2 -13
-5 0 -7 -3 -9 -7 -6 -3 4 2 16 12 27 20 22 34 28 16 7z m-4168 -54 c-3 -7 -9
-10 -14 -7 -14 8 -11 21 5 21 8 0 12 -6 9 -14z m29 0 c-5 -10 -7 -25 -4 -33 3
-11 2 -12 -8 -4 -9 9 -9 17 -1 33 7 12 14 21 17 21 2 0 1 -8 -4 -17z m4084 5
c-1 -7 -5 -14 -10 -15 -5 -1 -12 -5 -15 -10 -11 -16 -131 -98 -131 -89 0 2 24
21 53 42 28 21 63 49 77 61 29 27 29 27 26 11z m-3630 -20 l19 -21 -27 18
c-29 18 -34 25 -20 25 5 0 17 -10 28 -22z m90 -70 c4 -7 -9 1 -29 16 -20 16
-37 30 -37 33 0 7 58 -36 66 -49z m-471 12 c3 -6 -1 -7 -9 -4 -18 7 -21 14 -7
14 6 0 13 -4 16 -10z m4389 -15 c-4 -9 -16 -21 -28 -27 -19 -10 -19 -9 3 16
28 30 33 32 25 11z m-3839 -54 c-3 -2 -11 2 -19 8 -8 7 -21 9 -28 5 -7 -4 -10
-4 -6 1 4 4 2 15 -5 23 -6 9 5 5 25 -9 20 -13 35 -26 33 -28z m-502 -1 c15
-27 15 -31 3 -21 -9 8 -16 20 -16 27 0 8 -6 14 -14 14 -8 0 -17 4 -20 9 -4 5
2 8 11 7 10 -2 26 -18 36 -36z m2292 1 c-3 -12 -14 -21 -23 -21 -16 1 -16 2 1
14 9 7 17 19 17 26 0 7 3 11 6 7 3 -3 3 -15 -1 -26z m85 -56 c0 -51 -2 -56
-31 -70 -17 -9 -40 -14 -52 -12 -20 4 -20 4 3 6 14 1 32 6 40 11 13 9 12 12
-4 25 -11 8 -16 15 -11 15 5 0 17 -7 27 -17 17 -15 18 -14 18 40 0 32 2 57 5
57 3 0 5 -25 5 -55z m1360 25 c-20 -20 -47 -19 -34 1 3 5 9 7 14 4 4 -3 13 2
20 10 7 9 15 13 17 11 3 -2 -5 -14 -17 -26z m528 18 c-3 -7 -11 -13 -19 -13
-8 -1 -13 -6 -11 -13 1 -7 -3 -12 -10 -12 -7 0 -25 -12 -42 -27 -17 -16 -24
-19 -16 -9 22 28 84 85 93 86 5 0 7 -6 5 -12z m-3687 -35 c13 -16 12 -17 -3
-4 -17 13 -22 21 -14 21 2 0 10 -8 17 -17z m1674 -3 c-3 -5 -15 -10 -26 -10
-10 0 -19 5 -19 10 0 6 12 10 26 10 14 0 23 -4 19 -10z m1461 -12 c13 -16 14
-19 2 -10 -13 11 -22 10 -50 -2 -50 -23 -104 -56 -93 -56 6 0 2 -5 -8 -11 -9
-5 -22 -7 -27 -4 -6 3 -10 2 -10 -3 0 -6 -11 -13 -25 -16 -14 -4 -23 -11 -20
-16 4 -6 -1 -7 -11 -3 -12 4 -15 3 -10 -6 5 -8 3 -11 -5 -10 -8 1 -54 -16
-103 -39 -49 -23 -95 -42 -103 -42 -8 0 -12 -4 -9 -9 4 -5 -4 -7 -16 -5 -17 3
-15 0 7 -10 l30 -15 -45 4 c-33 2 -61 -4 -105 -24 -33 -16 -82 -33 -110 -40
-50 -12 -77 -19 -167 -41 -25 -7 -52 -10 -60 -7 -9 4 -7 6 5 6 24 1 237 60
262 72 12 6 27 11 35 13 8 2 29 8 45 15 17 7 59 23 95 37 93 37 372 177 422
213 24 16 46 30 49 31 3 0 14 -10 25 -22z m-3573 -40 c5 1 6 -2 2 -8 -4 -6
-15 -4 -31 6 -30 20 -32 29 -1 12 12 -7 26 -11 30 -10z m1970 5 c-13 -2 -33
-2 -45 0 -13 2 -3 4 22 4 25 0 35 -2 23 -4z m2031 -2 c3 -5 0 -13 -7 -19 -10
-8 -13 -6 -13 9 0 20 11 25 20 10z m-3455 -10 c9 -6 10 -11 2 -15 -6 -4 -11
-3 -11 3 0 5 -8 12 -17 14 -13 3 -14 5 -3 6 8 0 21 -3 29 -8z m1641 5 c0 -2
-7 -7 -16 -10 -8 -3 -12 -2 -9 4 6 10 25 14 25 6z m1765 -16 c-3 -5 1 -10 7
-13 7 -2 11 -7 8 -9 -18 -19 -164 -118 -174 -118 -6 1 2 8 17 16 16 8 25 20
21 26 -4 7 -3 8 5 4 6 -4 22 2 36 12 18 14 21 22 13 26 -7 3 -4 4 7 3 11 -1
20 3 20 10 0 6 4 15 9 20 5 5 6 3 2 -4 -9 -16 10 -17 19 -2 4 5 -1 19 -10 29
-16 18 -16 18 4 13 11 -3 19 -9 16 -13z m-1902 3 c-29 -2 -78 -2 -110 0 -32 2
-8 3 52 3 61 0 87 -1 58 -3z m-2008 -15 c5 4 4 1 0 -7 -6 -11 -4 -13 11 -7 15
6 17 5 6 -6 -10 -10 -17 -8 -35 12 -12 13 -15 19 -6 12 9 -7 20 -8 24 -4z
m1760 2 c19 -8 19 -9 -2 -9 -12 -1 -25 4 -28 9 -7 12 2 12 30 0z m-1195 -15
c14 -8 21 -14 15 -14 -5 0 -21 6 -35 14 -14 8 -20 14 -15 14 6 0 21 -6 35 -14z
m1247 9 c-3 -3 -12 -4 -19 -1 -8 3 -5 6 6 6 11 1 17 -2 13 -5z m1623 -8 c0 -2
-7 -7 -16 -10 -8 -3 -12 -2 -9 4 6 10 25 14 25 6z m-3348 -35 c-15 -13 -18
-21 -10 -24 7 -2 11 -7 8 -10 -3 -3 -18 5 -35 18 l-29 24 32 -4 c17 -2 34 0
37 6 4 5 9 9 13 9 4 -1 -3 -9 -16 -19z m3728 -15 c-7 -7 -13 -7 -20 0 -6 6 -3
10 10 10 13 0 16 -4 10 -10z m-415 -36 c3 -5 1 -10 -4 -10 -6 0 -11 5 -11 10
0 6 2 10 4 10 3 0 8 -4 11 -10z m-3220 -27 c0 -7 15 -24 34 -38 19 -14 32 -25
28 -25 -6 0 -65 37 -102 64 -19 14 -19 15 10 13 17 -2 30 -8 30 -14z m3490
-13 c-3 -5 -14 -10 -23 -10 -15 0 -15 2 -2 10 20 13 33 13 25 0z m-535 -10
c-8 -5 -19 -10 -25 -10 -5 0 -3 5 5 10 8 5 20 10 25 10 6 0 3 -5 -5 -10z m595
-4 c-29 -19 -69 -31 -61 -17 4 6 16 11 26 11 10 0 22 5 25 10 3 6 11 10 18 10
6 0 3 -6 -8 -14z m-3475 -6 c0 -5 -5 -10 -11 -10 -5 0 -7 5 -4 10 3 6 8 10 11
10 2 0 4 -4 4 -10z m615 0 c3 -6 -1 -7 -9 -4 -18 7 -21 14 -7 14 6 0 13 -4 16
-10z m66 -28 c-7 -2 -18 1 -23 6 -8 8 -4 9 13 5 13 -4 18 -8 10 -11z m2366 2
c-3 -3 -12 -4 -19 -1 -8 3 -5 6 6 6 11 1 17 -2 13 -5z m-3000 -23 c0 -11 -5
-17 -9 -15 -5 3 -5 10 -2 16 5 8 1 9 -10 5 -10 -4 -15 -3 -11 3 11 17 34 11
32 -9z m3361 14 c-2 -1 -12 -7 -24 -13 -16 -8 -21 -8 -21 2 0 8 11 14 24 14
13 0 23 -2 21 -3z m-63 -35 c-3 -5 -12 -10 -18 -10 -7 0 -6 4 3 10 19 12 23
12 15 0z m-2520 -10 c3 -5 1 -10 -4 -10 -6 0 -11 5 -11 10 0 6 2 10 4 10 3 0
8 -4 11 -10z m-701 -16 c7 -9 37 -24 66 -35 30 -10 48 -19 40 -19 -13 0 -13
-2 0 -9 8 -6 18 -7 24 -4 5 3 6 1 2 -6 -5 -8 -24 -2 -64 20 -70 40 -109 69
-92 69 7 0 18 -7 24 -16z m2493 0 c-3 -3 -12 -4 -19 -1 -8 3 -5 6 6 6 11 1 17
-2 13 -5z m-1661 -22 c-10 -2 -22 0 -28 6 -6 6 0 7 19 4 21 -5 23 -7 9 -10z
m2313 4 c-2 -2 -34 -20 -70 -39 -44 -24 -66 -31 -66 -22 0 7 7 11 15 7 9 -3
13 -1 9 5 -4 6 12 16 38 23 25 7 48 17 51 21 3 5 10 9 16 9 6 0 9 -2 7 -4z
m-109 -26 c-20 -13 -33 -13 -25 0 3 6 14 10 23 10 15 0 15 -2 2 -10z m-2100
-10 c8 -5 11 -10 5 -10 -5 0 -17 5 -25 10 -8 5 -10 10 -5 10 6 0 17 -5 25 -10z
m1263 3 c3 -5 -16 -9 -42 -10 -36 -1 -41 1 -21 7 33 11 58 12 63 3z m-1136
-19 c-3 -3 -12 -4 -19 -1 -8 3 -5 6 6 6 11 1 17 -2 13 -5z m1038 -4 c-3 -5
-13 -10 -21 -10 -8 0 -12 5 -9 10 3 6 13 10 21 10 8 0 12 -4 9 -10z m-1910
-38 c-5 -5 -45 22 -45 31 0 4 11 0 24 -10 13 -10 23 -19 21 -21z m1853 26 c-2
-6 -11 -13 -19 -16 -11 -3 -11 -2 1 7 11 9 4 10 -30 6 -36 -3 -39 -3 -15 4 45
13 67 12 63 -1z m145 5 c-7 -2 -19 -2 -25 0 -7 3 -2 5 12 5 14 0 19 -2 13 -5z
m64 1 c-3 -3 -12 -4 -19 -1 -8 3 -5 6 6 6 11 1 17 -2 13 -5z m-984 -21 c-7 -2
-19 -2 -25 0 -7 3 -2 5 12 5 14 0 19 -2 13 -5z m630 0 c-7 -2 -21 -2 -30 0
-10 3 -4 5 12 5 17 0 24 -2 18 -5z m1087 1 c0 -9 -112 -55 -118 -49 -4 3 4 8
17 12 17 4 19 8 9 15 -8 5 -2 6 17 2 24 -4 27 -3 15 6 -13 9 -12 10 5 6 11 -3
27 -1 35 4 18 11 20 12 20 4z m-1650 -14 c-8 -5 -24 -9 -35 -9 -16 1 -16 2 5
9 35 11 48 11 30 0z m485 0 c13 -5 14 -9 5 -9 -8 0 -24 4 -35 9 -13 5 -14 9
-5 9 8 0 24 -4 35 -9z m-1571 -9 c11 -4 15 -10 10 -13 -5 -2 -20 1 -34 8 -26
14 -8 18 24 5z m1473 3 c-7 -8 -317 -8 -324 0 -3 3 70 5 162 5 92 0 165 -2
162 -5z m-290 -20 c-3 -3 -12 -4 -19 -1 -8 3 -5 6 6 6 11 1 17 -2 13 -5z
m-1117 -14 c8 -5 11 -12 8 -16 -4 -3 -14 1 -23 10 -18 17 -9 21 15 6z m2418
-25 c-2 -3 -20 -7 -39 -10 l-34 -5 35 14 c32 12 50 13 38 1z m102 6 c-8 -5
-26 -11 -40 -15 -21 -5 -20 -3 5 9 32 15 60 20 35 6z m-2423 -16 c-6 -6 -21
-10 -34 -7 -31 6 -22 17 15 18 23 1 27 -2 19 -11z m90 -1 c-3 -3 -12 -4 -19
-1 -8 3 -5 6 6 6 11 1 17 -2 13 -5z m20 -23 c-1 -21 -28 -33 -47 -21 -8 5 -3
10 14 14 14 3 26 11 26 16 0 6 2 10 4 10 3 0 4 -9 3 -19z m2221 4 c-9 -9 -201
-75 -206 -71 -2 2 -22 -4 -45 -15 -23 -10 -53 -18 -67 -18 -16 1 -10 4 18 11
23 5 42 13 42 19 0 5 9 9 21 9 13 0 18 4 13 13 -6 9 -4 9 8 -1 14 -11 26 -9
79 13 34 14 70 25 80 25 10 0 21 5 24 10 3 6 13 10 22 10 9 0 14 -2 11 -5z
m-2138 -60 l45 -15 -40 6 c-22 3 -47 10 -55 15 -23 13 0 10 50 -6z m85 5 c-3
-5 -1 -10 6 -10 7 0 10 -2 7 -5 -3 -3 -13 -2 -22 1 -14 5 -15 9 -4 15 17 11
20 11 13 -1z m1763 -21 c-7 -5 -22 -9 -32 -9 -19 0 -19 0 -1 14 11 8 25 11 33
8 11 -4 11 -6 0 -13z m-188 -9 c12 -8 12 -10 -3 -16 -9 -3 -25 -3 -34 0 -15 6
-15 8 -3 16 8 6 17 10 20 10 3 0 12 -4 20 -10z m125 0 c3 -5 -1 -10 -9 -10 -9
0 -16 5 -16 10 0 6 4 10 9 10 6 0 13 -4 16 -10z m-1610 -25 c17 -8 43 -17 59
-20 15 -3 26 -8 23 -11 -6 -6 -186 42 -196 52 -10 11 82 -6 114 -21z m1392 19
c-3 -3 -12 -4 -19 -1 -8 3 -5 6 6 6 11 1 17 -2 13 -5z m213 -23 c0 -4 -6 -8
-12 -8 -7 0 -21 -4 -32 -8 -18 -8 -18 -7 -1 13 16 18 45 20 45 3z m-255 -7
c23 -9 0 -24 -35 -23 -14 0 -19 3 -12 6 6 2 10 9 6 14 -6 10 17 12 41 3z
m-1110 -14 c15 -6 11 -7 -17 -7 -23 1 -33 4 -25 9 14 9 16 9 42 -2z m65 0 c0
-5 -5 -10 -11 -10 -5 0 -7 5 -4 10 3 6 8 10 11 10 2 0 4 -4 4 -10z m970 0 c-8
-5 -22 -9 -30 -9 -10 0 -8 3 5 9 27 12 43 12 25 0z m137 4 c-3 -3 -12 -4 -19
-1 -8 3 -5 6 6 6 11 1 17 -2 13 -5z m48 -13 c17 -7 17 -8 -8 -15 -33 -8 -56 2
-36 15 16 10 18 10 44 0z m68 2 c-7 -2 -21 -2 -30 0 -10 3 -4 5 12 5 17 0 24
-2 18 -5z m-1396 -9 c-3 -3 -12 -4 -19 -1 -8 3 -5 6 6 6 11 1 17 -2 13 -5z
m1091 0 l23 -7 -23 -12 c-13 -6 -22 -16 -21 -22 3 -17 -209 -33 -442 -33 -120
0 -216 2 -213 5 3 3 104 6 224 6 214 1 369 13 379 30 3 4 13 5 22 2 11 -4 14
-3 9 6 -4 6 -4 11 1 10 20 -3 27 2 13 11 -17 11 -6 13 28 4z m-998 -14 c0 -5
-10 -10 -22 -9 -22 0 -22 1 -3 9 11 5 21 9 23 9 1 1 2 -3 2 -9z m240 -17 c0
-7 15 -17 33 -22 29 -9 27 -10 -18 -6 -27 2 -63 4 -78 4 -23 1 -26 4 -18 19
11 21 81 26 81 5z m927 11 c-3 -3 -12 -4 -19 -1 -8 3 -5 6 6 6 11 1 17 -2 13
-5z m-1042 -14 c18 -8 18 -9 -5 -9 -14 0 -45 4 -70 8 l-45 8 50 1 c28 0 59 -3
70 -8z m1000 5 c-23 -8 -85 -10 -85 -3 0 4 21 8 48 7 26 0 43 -2 37 -4z m-98
-11 c-3 -3 -12 -4 -19 -1 -8 3 -5 6 6 6 11 1 17 -2 13 -5z"/>
<path d="M2945 7379 c-11 -17 1 -21 15 -4 8 9 8 15 2 15 -6 0 -14 -5 -17 -11z"/>
<path d="M2706 6901 c-4 -7 -5 -15 -2 -18 9 -9 19 4 14 18 -4 11 -6 11 -12 0z"/>
<path d="M3445 7440 c-3 -5 -2 -10 4 -10 5 0 13 5 16 10 3 6 2 10 -4 10 -5 0
-13 -4 -16 -10z"/>
<path d="M6326 7032 c-2 -4 -1 -14 3 -21 6 -9 10 -7 14 8 5 20 -7 29 -17 13z"/>
<path d="M6217 6899 c-15 -9 -15 -12 -3 -25 18 -17 39 -15 47 6 12 29 -10 39
-44 19z"/>
<path d="M6265 6858 c-10 -15 -14 -16 -19 -6 -3 7 -4 4 -1 -7 4 -16 0 -21 -21
-23 -33 -2 -57 -16 -60 -33 -2 -8 -5 -24 -8 -36 -3 -13 0 -23 6 -23 22 0 80
53 90 81 5 16 14 26 20 23 5 -3 8 2 6 12 -2 10 2 19 9 19 18 0 25 12 7 12 -8
0 -21 -9 -29 -19z"/>
<path d="M4120 7220 c0 -5 5 -10 11 -10 5 0 7 5 4 10 -3 6 -8 10 -11 10 -2 0
-4 -4 -4 -10z"/>
<path d="M5132 7013 c-13 -5 -7 -23 9 -23 6 0 7 5 4 10 -3 6 -2 10 4 10 5 0
13 -4 16 -10 3 -5 11 -10 17 -10 7 0 6 6 -2 15 -13 15 -25 17 -48 8z"/>
<path d="M4232 6258 c2 -6 10 -14 16 -16 7 -2 10 2 6 12 -7 18 -28 22 -22 4z"/>
<path d="M4215 6240 c3 -6 -1 -13 -9 -16 -9 -3 -16 -10 -16 -15 0 -4 7 -6 15
-3 9 4 15 0 16 -7 0 -8 4 -3 10 9 10 25 5 42 -12 42 -6 0 -7 -5 -4 -10z"/>
<path d="M3880 5781 c0 -6 4 -13 10 -16 6 -3 7 1 4 9 -7 18 -14 21 -14 7z"/>
<path d="M7068 6063 c7 -3 16 -2 19 1 4 3 -2 6 -13 5 -11 0 -14 -3 -6 -6z"/>
<path d="M5900 4590 c-9 -6 -10 -10 -3 -10 6 0 15 5 18 10 8 12 4 12 -15 0z"/>
<path d="M3167 4269 c7 -7 15 -10 18 -7 3 3 -2 9 -12 12 -14 6 -15 5 -6 -5z"/>
<path d="M4121 4223 c7 -12 15 -20 18 -17 3 2 -3 12 -13 22 -17 16 -18 16 -5
-5z"/>
<path d="M3068 3983 c7 -3 16 -2 19 1 4 3 -2 6 -13 5 -11 0 -14 -3 -6 -6z"/>
<path d="M7345 2959 c-4 -6 -5 -12 -2 -15 2 -3 7 2 10 11 7 17 1 20 -8 4z"/>
<path d="M4008 3703 c6 -2 18 -2 25 0 6 3 1 5 -13 5 -14 0 -19 -2 -12 -5z"/>
<path d="M4086 3677 c3 -10 9 -15 12 -12 3 3 0 11 -7 18 -10 9 -11 8 -5 -6z"/>
<path d="M3993 3423 c-14 -5 -18 -33 -5 -33 4 0 14 5 22 10 17 11 2 30 -17 23z"/>
<path d="M3942 3373 c-16 -32 -22 -72 -12 -78 6 -4 7 1 3 11 -4 11 -3 15 4 11
7 -5 9 0 6 12 -3 10 1 22 8 26 7 5 10 4 5 -3 -3 -6 -3 -13 2 -16 4 -2 9 6 10
19 2 30 -14 41 -26 18z"/>
<path d="M3870 3350 c0 -5 9 -10 20 -10 11 0 20 5 20 10 0 6 -9 10 -20 10 -11
0 -20 -4 -20 -10z"/>
<path d="M3824 3295 c-19 -14 -18 -14 1 -15 16 0 21 -6 19 -27 -3 -50 -4 -52
-18 -47 -8 3 -25 -7 -39 -22 -26 -28 -57 -28 -57 1 0 32 -28 13 -47 -31 -12
-28 -23 -42 -28 -35 -3 7 -1 18 5 26 12 15 6 35 -11 35 -6 0 -7 -5 -3 -11 4
-8 0 -9 -15 -4 -24 7 -29 -10 -6 -19 8 -3 15 -11 15 -17 0 -19 31 -36 57 -31
14 3 20 7 15 11 -7 4 -5 15 3 31 10 17 14 20 15 9 0 -9 7 -22 15 -29 13 -11
13 -15 3 -21 -7 -5 -8 -9 -2 -9 18 0 115 112 110 126 -3 8 0 14 6 14 7 0 7 4
0 13 -6 7 -9 22 -6 34 7 27 -8 36 -32 18z"/>
<path d="M3613 3241 c-20 -38 -20 -51 -1 -51 5 0 6 5 2 12 -5 8 0 9 15 5 27
-7 42 19 30 51 -12 31 -22 28 -46 -17z"/>
<path d="M3865 3270 c-4 -7 -1 -18 6 -25 12 -11 17 -10 32 11 10 13 13 24 7
24 -5 0 -10 -5 -10 -11 0 -8 -4 -8 -14 0 -11 9 -16 9 -21 1z"/>
</g>
</svg>
